<svg width="1112" height="124" viewBox="0 0 1112 124" fill="none" xmlns="http://www.w3.org/2000/svg">
<g clip-path="url(#clip0_90_303)">
<path d="M1013.04 21.3771C1013.04 21.3771 1024.31 36.8415 1027.7 47.8651C1031.09 58.8887 1062.23 42.3973 1037.8 25.8766C1013.36 9.35583 1108.56 6.50945 1111.93 18.9024C1115.3 31.2954 1000.37 82.9606 1062.49 106.064C1124.61 129.168 1021.14 134.538 1013.04 122.556C1004.94 110.573 1060.22 54.0078 1062.51 42.857C1064.81 31.7063 1047.91 51.9341 1046.24 54.0078C1044.56 56.0814 1037.14 76.5734 1013.04 71.8979" fill="#86BA6E"/>
<path d="M1013.04 21.3771C1013.04 21.3771 1024.31 36.8415 1027.7 47.8651C1031.09 58.8887 1062.23 42.3973 1037.8 25.8766C1013.36 9.35583 1108.56 6.50945 1111.93 18.9024C1115.3 31.2954 1000.37 82.9606 1062.49 106.064C1124.61 129.168 1021.14 134.538 1013.04 122.556C1004.94 110.573 1060.22 54.0078 1062.51 42.857C1064.81 31.7063 1047.91 51.9341 1046.24 54.0078C1044.56 56.0814 1037.14 76.5734 1013.04 71.8979" stroke="#86BA6E" stroke-width="2" stroke-miterlimit="10"/>
<path d="M742.715 101.115C742.954 98.1805 750.695 69.2178 752.33 67.9267C753.966 66.6356 786.981 64.9923 797.634 58.2431C808.287 51.494 777.685 33.7017 789.056 28.5371C800.427 23.3726 824.385 23.4117 832.285 25.9548C840.185 28.498 824.046 41.4485 826.44 47.4739C828.834 53.4992 842.918 55.8663 851.157 60.1309C859.396 64.3956 832.285 66.1954 830.909 69.9123C829.532 73.6292 853.212 79.9871 850.119 80.1143C847.027 80.2414 809.982 69.7363 805.514 69.0907C801.045 68.4451 795.919 68.6994 787.68 70.0688C779.441 71.4382 754.724 101.242 784.927 103.619C815.129 105.996 847.047 83.3421 856.982 95.2167C866.916 107.091 889.937 102.328 893.708 100.9C897.478 99.4716 905.557 86.3841 913.138 88.8295C920.718 91.2748 926.882 85.4256 928.319 82.9607C929.755 80.4958 917.127 72.3185 917.127 72.3185C914.235 64.5717 921.456 63.5153 930.852 62.2633C940.248 61.0113 931.57 72.0447 931.57 73.1304C931.57 74.2161 938.792 80.4762 967.339 73.1304C995.885 65.7846 970.231 41.5953 969.493 31.2661C968.755 20.937 1005.62 25.2799 1005.62 27.6861C1005.62 30.0924 990.08 37.3795 1000.57 41.5952C1011.07 45.811 993.711 53.8317 994.07 62.6643C994.27 67.9169 1003.69 70.1079 1012.34 71.8882V21.3772C1010.38 20.4945 1009.18 19.2763 1008.99 17.9732C1008.99 13.5032 993.352 15.6648 970.67 16.2615C947.988 16.8582 953.155 34.044 955.03 36.7241C957.025 39.5705 953.474 71.2915 943.3 73.0619C933.126 74.8324 937.834 66.8801 945.654 60.6983C953.474 54.5164 927.7 56.2869 913.577 58.0475C899.453 59.8082 910.445 65.1097 911.243 71.5849C912.041 78.0602 926.882 77.2092 925.307 83.078C923.731 88.9469 915.931 84.2518 909.667 78.07C903.403 71.8882 888.561 77.7765 888.022 80.7207C887.484 83.6649 901.887 95.9112 888.022 99.8238C874.158 103.736 873.001 92.429 873.36 88.9469C873.719 85.4647 848.743 86.345 821.014 89.387C793.285 92.429 809.464 84.1638 817.543 80.2512C825.622 76.3387 868.373 87.2156 868.373 83.7334C868.373 80.2512 853.371 79.3807 853.371 75.4681C853.371 71.5556 871.844 67.2127 873.001 65.1684C874.158 63.124 873.001 58.517 862.607 56.3651C852.214 54.2132 841.801 38.9738 851.057 36.8024C860.313 34.6309 856.742 26.3461 854.508 22.8541C852.274 19.3622 829.093 19.8121 817.543 13.7183C805.993 7.62455 786.363 12.4174 780.578 12.8576C774.793 13.2977 770.185 21.5532 753.388 23.2845C736.591 25.0158 737.828 34.1614 742.456 40.2454C747.084 46.3294 757.477 56.3358 751.692 59.3778C745.907 62.4198 726.277 63.2903 736.671 70.6753C747.064 78.0602 736.431 96.9676 736.152 97.3099C736.152 97.3099 721.031 94.3755 713.829 97.1045C706.628 99.8335 729.988 111.288 729.988 111.288C729.988 111.288 741.977 110.916 742.715 101.115Z" fill="#86BA6E" stroke="#86BA6E" stroke-width="2" stroke-miterlimit="10"/>
<path d="M247.984 95.8819C248.223 92.9475 255.964 63.9848 257.599 62.6937C259.235 61.4025 292.251 59.7593 302.903 53.0101C313.556 46.261 282.954 28.4687 294.325 23.3041C305.696 18.1395 329.655 18.1395 337.554 20.7218C345.454 23.3041 329.315 36.2155 331.709 42.2408C334.103 48.2662 348.187 50.6332 356.426 54.8979C364.665 59.1626 337.554 60.9624 336.178 64.6793C334.801 68.3962 358.481 74.7541 355.389 74.8813C352.296 75.0084 315.252 64.4934 310.783 63.8577C306.314 63.2219 301.188 63.4664 292.949 64.8358C284.71 66.2052 259.993 96.009 290.196 98.337C320.398 100.665 352.316 78.0602 362.251 89.925C372.185 101.79 395.206 97.0263 398.977 95.608C402.747 94.1897 410.826 81.0827 418.407 83.528C425.987 85.9733 432.152 80.1339 433.588 77.6592C435.024 75.1845 422.397 67.0562 422.397 67.0562C419.504 59.3093 426.725 58.2529 436.121 57.0009C445.517 55.7489 436.84 66.7823 436.84 67.8778C436.84 68.9733 444.061 75.2138 472.608 67.8778C501.155 60.5418 475.5 36.3329 474.762 26.0038C474.024 15.6746 510.89 20.0176 510.89 22.4238C510.89 24.83 495.349 32.1171 505.843 36.3329C516.336 40.5487 498.98 48.5694 499.339 57.4117C499.539 62.6643 508.955 64.8554 517.612 66.6258V16.1441C515.648 15.2615 514.449 14.0433 514.261 12.7402C514.261 8.27992 498.621 10.4416 475.939 11.0285C453.257 11.6154 458.424 28.811 460.299 31.4911C462.294 34.3375 458.743 66.0683 448.569 67.8289C438.396 69.5895 443.103 61.6471 450.923 55.4652C458.743 49.2834 432.969 51.0538 418.846 52.8243C404.722 54.5947 415.714 59.8864 416.512 66.3617C417.31 72.837 432.152 71.9469 430.576 77.8352C429 83.7236 421.2 79.0188 414.936 72.837C408.672 66.6551 393.83 72.5435 393.291 75.4779C392.753 78.4123 407.156 90.6684 393.291 94.5809C379.427 98.4935 378.27 87.1862 378.629 83.7138C378.988 80.2415 354.032 81.1218 326.283 84.1442C298.534 87.1667 314.733 78.9308 322.812 75.0182C330.891 71.1057 373.642 81.9728 373.642 78.4906C373.642 75.0084 358.64 74.1477 358.64 70.2351C358.64 66.3226 377.113 61.9699 378.27 59.9353C379.427 57.9008 378.27 53.2742 367.876 51.1321C357.483 48.99 347.07 33.7408 356.326 31.5694C365.582 29.3979 362.091 21.1815 359.777 17.6994C357.463 14.2172 334.362 14.6085 322.812 8.49511C311.262 2.38176 291.632 7.18441 285.847 7.62457C280.062 8.06473 275.454 16.3202 258.657 18.0613C241.86 19.8024 243.097 28.9284 247.725 35.0124C252.353 41.0964 262.746 51.1028 256.961 54.1448C251.176 57.1868 231.546 58.0573 241.94 65.452C252.333 72.8467 241.7 91.7346 241.421 92.0769C241.421 92.0769 226.3 89.1425 219.098 91.8715C211.897 94.6005 235.257 106.064 235.257 106.064C235.257 106.064 247.246 105.683 247.984 95.8819Z" fill="#86BA6E" stroke="#86BA6E" stroke-width="2" stroke-miterlimit="10"/>
<path d="M149.816 135.477C139.502 132.357 128.63 122.027 116.74 120.805C104.392 119.553 115.683 112.285 125.219 108.02C134.754 103.756 140.081 119.386 171.899 121.274C203.717 123.162 167.67 103.296 153.945 104.812C140.22 106.328 135.991 101.399 143.332 95.246C150.673 89.0935 186.841 88.1448 195.319 83.4204C203.797 78.696 176.228 70.6361 165.615 72.6608C155.002 74.6856 135.911 93.3778 128.49 83.4204C121.069 73.4629 170.921 63.0653 175.171 53.8904C179.42 44.7155 146.444 38.475 137.966 29.5544C129.488 20.6337 151.751 13.9042 153.925 2.03937C156.1 -9.82543 122.007 -17.3669 106.188 -17.3669C90.3682 -17.3669 71.1175 -17.8364 73.2321 14.3443C75.3467 46.525 26.5519 28.5371 24.4373 53.91C22.3227 79.2828 58.3503 69.2374 60.5048 78.0993C62.6592 86.9612 37.1646 87.2253 35.0501 95.2656C32.9355 103.306 35.0501 95.2656 51.0091 121.773C66.9682 148.281 23.4199 146.373 19.091 142.118C14.7621 137.863 31.8184 132.65 19.091 128.865C6.36367 125.079 0 131.995 0 131.995C0 132.689 1.15703 132.973 7.06188 133.129C12.9667 133.286 10.6726 136.739 10.6726 143.214C10.6726 149.689 40.5958 146.676 53.2633 143.791C65.9308 140.905 68.7436 112.129 68.4245 107.091C68.1053 102.054 90.3681 87.372 91.984 79.0187C93.5999 70.6654 57.3528 66.5671 55.7569 64.8553C54.161 63.1436 25.734 48.8432 62.7789 43.395C99.8239 37.9468 86.3185 31.9019 91.1661 27.872C96.0137 23.842 87.5155 -8.34845 94.697 -13.3859C101.879 -18.4233 127.513 -11.6546 136.59 -1.72646C145.666 8.20163 100.462 5.38459 100.462 16.3299C100.462 27.2753 129.827 30.1412 143.053 42.6614C156.279 55.1815 125.259 50.4865 111.135 68.2299C97.0111 85.9733 123.324 86.2178 133.537 87.6752C143.751 89.1327 163.56 75.2529 168.508 74.6269C173.455 74.0009 179.28 77.2874 179.48 80.8087C179.679 84.33 144.569 88.2817 138.584 93.4365C132.6 98.5913 131.483 102.24 142.355 105.057C144.689 105.653 159.571 106.397 159.571 106.397C175.21 108.255 184.307 117.156 176.507 119.621C168.707 122.086 170.522 117.068 158.813 113.977C147.103 110.886 150.494 113.674 138.146 109.243C129.009 105.976 118.636 102.396 109.679 103.932C104.791 104.783 80.4536 114.554 82.5682 126.752C84.4234 137.414 125.179 135.555 144.848 137.678" fill="#86BA6E"/>
<path d="M517.612 16.1441C517.612 16.1441 527.307 22.3161 527.307 43.6884C527.307 65.0607 573.948 60.8352 584.102 55.7488C594.256 50.6625 608.34 57.6464 609.377 59.8766C610.414 62.1067 652.706 71.5066 624.598 43.1896C587.054 5.42371 595.173 -17.3669 595.173 -17.6701H816.206C816.206 -17.3669 745.228 3.91737 724.94 31.7551C704.652 59.5929 646.302 31.7551 666.869 61.0993C687.437 90.4434 763.481 105.849 751.313 117.283C739.144 128.718 654.98 106.074 654.98 106.074C654.98 106.074 687.437 97.3979 673.233 82.9802C659.029 68.5624 641.814 48.6769 651.948 44.197C662.082 39.7172 664.116 32.7626 694.538 32.2638C724.96 31.7649 693.521 -2.01992 693.521 -2.01992H634.712C634.712 -2.01992 662.082 4.41623 651.948 19.3328C641.814 34.2494 634.712 52.6384 642.831 62.586C650.95 72.5337 614.424 83.3421 599.223 69.5406C584.022 55.7391 556.632 73.0227 549.53 73.0227C542.429 73.0227 527.088 74.7247 517.612 66.6649" fill="#86BA6E"/>
<path d="M96.9863 127.768H97.8753V100.181H16V117.559L96.966 117.459L96.9863 127.768Z" fill="black" stroke="black" stroke-width="3" stroke-miterlimit="10"/>
<path d="M534 126.252V4.84918H623.428V25.6171L535.011 25.5031L534.7 126.252H534Z" fill="black" stroke="black" stroke-width="2" stroke-miterlimit="10"/>
<path d="M386 20.7821V30.8206H390.542V20.7821H386Z" fill="black" stroke="black" stroke-miterlimit="10"/>
<path d="M486.839 70.237V110.892H492.467V70.237H486.839Z" fill="black" stroke="black" stroke-miterlimit="10"/>
<path d="M903 34.6369V65.6087H914.257V34.6369H903Z" fill="black" stroke="black" stroke-miterlimit="10"/>
<path d="M931.498 34.65V65.6218H942.755V34.65H931.498Z" fill="black" stroke="black" stroke-miterlimit="10"/>
</g>
<defs>
<clipPath id="clip0_90_303">
<rect width="1112" height="124" fill="white"/>
</clipPath>
</defs>
</svg>
