<svg width="1112" height="284" viewBox="0 0 1112 284" fill="none" xmlns="http://www.w3.org/2000/svg">
<g clip-path="url(#clip0_69_2)">
<path d="M1013.04 63.2661C1013.04 63.2661 1024.31 104.35 1027.7 133.636C1031.09 162.923 1062.23 119.11 1037.8 75.2196C1013.36 31.3292 1108.56 23.7672 1111.93 56.6916C1115.3 89.6159 1000.37 226.874 1062.49 288.253C1124.61 349.632 1021.14 363.899 1013.04 332.066C1004.94 300.233 1060.22 149.956 1062.51 120.331C1064.81 90.7073 1047.91 144.446 1046.24 149.956C1044.56 155.465 1037.14 209.905 1013.04 197.484" fill="#86BA6E"/>
<path d="M1013.04 63.2661C1013.04 63.2661 1024.31 104.35 1027.7 133.636C1031.09 162.923 1062.23 119.11 1037.8 75.2196C1013.36 31.3292 1108.56 23.7672 1111.93 56.6916C1115.3 89.6159 1000.37 226.874 1062.49 288.253C1124.61 349.632 1021.14 363.899 1013.04 332.066C1004.94 300.233 1060.22 149.956 1062.51 120.331C1064.81 90.7073 1047.91 144.446 1046.24 149.956C1044.56 155.465 1037.14 209.905 1013.04 197.484" stroke="#86BA6E" stroke-width="2" stroke-miterlimit="10"/>
<path d="M742.715 275.104C742.954 267.309 750.694 190.364 752.33 186.934C753.966 183.504 786.981 179.138 797.634 161.208C808.287 143.277 777.685 96.0085 789.056 82.2879C800.427 68.5673 824.385 68.6712 832.285 75.4276C840.185 82.1839 824.046 116.589 826.44 132.597C828.834 148.604 842.918 154.893 851.157 166.223C859.396 177.553 832.285 182.334 830.909 192.209C829.532 202.084 853.211 218.975 850.119 219.312C847.027 219.65 809.982 191.741 805.514 190.026C801.045 188.311 795.918 188.987 787.68 192.625C779.441 196.263 754.724 275.442 784.927 281.757C815.129 288.071 847.047 227.888 856.982 259.435C866.916 290.982 889.937 278.327 893.707 274.533C897.478 270.739 905.557 235.969 913.138 242.466C920.718 248.962 926.882 233.423 928.319 226.874C929.755 220.326 917.127 198.601 917.127 198.601C914.235 178.021 921.456 175.214 930.852 171.888C940.248 168.562 931.57 197.874 931.57 200.758C931.57 203.643 938.792 220.274 967.339 200.758C995.885 181.243 970.231 116.979 969.493 89.538C968.755 62.0967 1005.62 73.6345 1005.62 80.0271C1005.62 86.4197 990.08 105.779 1000.57 116.979C1011.07 128.179 993.711 149.488 994.07 172.953C994.27 186.908 1003.69 192.729 1012.34 197.458V63.2661C1010.38 60.9212 1009.18 57.6848 1008.99 54.2229C1008.99 42.3473 993.352 48.0902 970.67 49.6754C947.988 51.2605 953.155 96.918 955.03 104.038C957.025 111.6 953.474 195.873 943.3 200.576C933.126 205.28 937.834 184.153 945.654 167.73C953.474 151.307 927.7 156.01 913.576 160.688C899.453 165.365 910.445 179.45 911.243 196.653C912.04 213.855 926.882 211.595 925.306 227.186C923.73 242.778 915.93 230.304 909.667 213.881C903.403 197.458 888.561 213.102 888.022 220.923C887.483 228.745 901.886 261.28 888.022 271.674C874.158 282.069 873.001 252.029 873.36 242.778C873.719 233.527 848.743 235.865 821.014 243.947C793.285 252.029 809.464 230.071 817.543 219.676C825.622 209.282 868.372 238.178 868.372 228.927C868.372 219.676 853.371 217.363 853.371 206.969C853.371 196.575 871.844 185.037 873.001 179.606C874.158 174.175 873.001 161.935 862.607 156.218C852.214 150.501 841.801 110.015 851.057 104.246C860.313 98.4772 856.742 76.467 854.508 67.19C852.274 57.913 829.093 59.1083 817.543 42.919C805.993 26.7297 786.363 39.4629 780.578 40.6322C774.793 41.8016 770.184 63.7339 753.388 68.3334C736.591 72.9329 737.827 97.2299 742.456 113.393C747.084 129.557 757.477 156.14 751.692 164.222C745.907 172.304 726.277 174.616 736.67 194.236C747.064 213.855 736.431 264.086 736.152 264.996C736.152 264.996 721.031 257.2 713.829 264.45C706.628 271.7 729.988 302.13 729.988 302.13C729.988 302.13 741.977 301.142 742.715 275.104Z" fill="#86BA6E" stroke="#86BA6E" stroke-width="2" stroke-miterlimit="10"/>
<path d="M247.984 261.202C248.223 253.406 255.964 176.461 257.599 173.031C259.235 169.601 292.251 165.235 302.903 147.305C313.556 129.375 282.954 82.1061 294.325 68.3854C305.696 54.6648 329.655 54.6648 337.554 61.5251C345.454 68.3854 329.315 102.687 331.709 118.694C334.103 134.702 348.187 140.99 356.426 152.32C364.665 163.65 337.554 168.432 336.178 178.306C334.801 188.181 358.481 205.072 355.389 205.41C352.296 205.748 315.252 177.813 310.783 176.124C306.314 174.434 301.188 175.084 292.949 178.722C284.71 182.36 259.993 261.54 290.196 267.724C320.398 273.909 352.316 213.855 362.251 245.376C372.185 276.898 395.206 264.242 398.977 260.474C402.747 256.706 410.826 221.885 418.407 228.382C425.987 234.878 432.152 219.364 433.588 212.79C435.024 206.215 422.397 184.621 422.397 184.621C419.504 164.04 426.725 161.234 436.121 157.907C445.517 154.581 436.84 183.893 436.84 186.804C436.84 189.714 444.061 206.293 472.608 186.804C501.155 167.314 475.5 102.999 474.762 75.5576C474.024 48.1163 510.89 59.6541 510.89 66.0467C510.89 72.4392 495.349 91.7988 505.843 102.999C516.336 114.199 498.98 135.507 499.339 158.999C499.539 172.953 508.955 178.774 517.612 183.478V49.3636C515.648 47.0187 514.449 43.7823 514.261 40.3205C514.261 28.4708 498.621 34.2138 475.939 35.7729C453.257 37.3321 458.424 83.0156 460.299 90.1357C462.294 97.6977 458.743 181.996 448.569 186.674C438.396 191.351 443.103 170.251 450.923 153.828C458.743 137.404 432.969 142.108 418.846 146.811C404.722 151.515 415.714 165.573 416.512 182.776C417.31 199.979 432.152 197.614 430.576 213.258C429 228.901 421.2 216.402 414.936 199.979C408.672 183.556 393.83 199.199 393.291 206.995C392.753 214.791 407.156 247.351 393.291 257.746C379.427 268.14 378.27 238.1 378.629 228.875C378.988 219.65 354.032 221.989 326.283 230.019C298.534 238.048 314.733 216.168 322.812 205.774C330.891 195.379 373.642 224.25 373.642 214.999C373.642 205.748 358.64 203.461 358.64 193.067C358.64 182.672 377.113 171.108 378.27 165.703C379.427 160.298 378.27 148.007 367.876 142.316C357.483 136.625 347.07 96.1125 356.326 90.3436C365.582 84.5747 362.091 62.7464 359.777 53.4954C357.463 44.2444 334.362 45.2838 322.812 29.0425C311.262 12.8012 291.632 25.5604 285.847 26.7298C280.062 27.8991 275.454 49.8314 258.657 54.4569C241.86 59.0824 243.097 83.3274 247.725 99.4907C252.353 115.654 262.746 142.238 256.961 150.319C251.176 158.401 231.546 160.714 241.94 180.359C252.333 200.005 241.7 250.184 241.421 251.093C241.421 251.093 226.3 243.298 219.098 250.548C211.897 257.798 235.257 288.253 235.257 288.253C235.257 288.253 247.246 287.24 247.984 261.202Z" fill="#86BA6E" stroke="#86BA6E" stroke-width="2" stroke-miterlimit="10"/>
<path d="M149.816 366.393C139.502 358.104 128.63 330.663 116.74 327.414C104.392 324.088 115.683 304.78 125.219 293.451C134.754 282.121 140.081 323.646 171.899 328.662C203.717 333.677 167.67 280.899 153.945 284.927C140.22 288.955 135.991 275.858 143.332 259.513C150.673 243.168 186.841 240.647 195.319 228.096C203.797 215.544 176.228 194.132 165.615 199.511C155.002 204.89 135.911 254.549 128.49 228.096C121.069 201.642 170.921 174.019 175.171 149.644C179.42 125.269 146.444 108.69 137.966 84.9905C129.488 61.2912 151.751 43.4128 153.925 11.8917C156.1 -19.6294 122.007 -39.6646 106.188 -39.6646C90.3682 -39.6646 71.1175 -40.912 73.2321 44.5821C75.3467 130.076 26.5519 82.2879 24.4373 149.696C22.3227 217.104 58.3503 190.416 60.5048 213.959C62.6592 237.503 37.1646 238.204 35.0501 259.565C32.9355 280.925 35.0501 259.565 51.0091 329.987C66.9682 400.409 23.4199 395.342 19.091 384.038C14.7621 372.734 31.8184 358.883 19.091 348.827C6.36367 338.77 0 357.142 0 357.142C0 358.987 1.15703 359.741 7.06188 360.157C12.9667 360.573 10.6726 369.746 10.6726 386.948C10.6726 404.151 40.5958 396.147 53.2633 388.482C65.9308 380.816 68.7436 304.365 68.4245 290.982C68.1053 277.599 90.3681 238.594 91.984 216.402C93.5999 194.21 57.3528 183.322 55.7569 178.774C54.161 174.227 25.734 136.235 62.7789 121.761C99.8239 107.286 86.3185 91.2271 91.1661 80.5209C96.0137 69.8146 87.5155 -15.7055 94.697 -29.0883C101.879 -42.4711 127.513 -24.4888 136.59 1.88706C145.666 28.2629 100.462 20.7789 100.462 49.8573C100.462 78.9357 129.827 86.5496 143.053 119.812C156.279 153.074 125.259 140.601 111.135 187.739C97.0111 234.878 123.324 235.528 133.537 239.4C143.751 243.271 163.56 206.397 168.508 204.734C173.455 203.071 179.28 211.802 179.48 221.157C179.679 230.512 144.569 241.011 138.584 254.705C132.6 268.4 131.483 278.093 142.355 285.577C144.689 287.162 159.571 289.137 159.571 289.137C175.21 294.074 184.307 317.722 176.507 324.27C168.707 330.819 170.522 317.488 158.813 309.276C147.103 301.064 150.494 308.471 138.146 296.699C129.009 288.019 118.636 278.509 109.679 282.588C104.791 284.849 80.4536 310.809 82.5682 343.214C84.4234 371.539 125.179 366.601 144.848 372.24" fill="#86BA6E"/>
<path d="M517.612 49.3635C517.612 49.3635 527.308 65.7607 527.308 122.54C527.308 179.32 573.948 168.094 584.102 154.581C594.256 141.068 608.34 159.622 609.377 165.547C610.414 171.472 652.706 196.445 624.598 121.215C587.054 20.8828 595.173 -39.6647 595.173 -40.4703H816.206C816.206 -39.6647 745.228 16.8809 724.94 90.8373C704.653 164.794 646.302 90.8373 666.869 168.795C687.437 246.754 763.482 287.682 751.313 318.059C739.144 348.437 654.98 288.279 654.98 288.279C654.98 288.279 687.437 265.23 673.233 226.926C659.03 188.623 641.814 135.793 651.948 123.892C662.082 111.99 664.117 93.5138 694.538 92.1885C724.96 90.8632 693.521 1.10741 693.521 1.10741H634.712C634.712 1.10741 662.082 18.2062 651.948 57.835C641.814 97.4637 634.712 146.317 642.831 172.745C650.95 199.173 614.424 227.888 599.223 191.221C584.022 154.555 556.632 200.472 549.531 200.472C542.429 200.472 527.088 204.994 517.612 183.581" fill="#86BA6E"/>
<path d="M96.9863 292.629H97.8753V229.446H16V269.249L96.966 269.019L96.9863 292.629Z" fill="black" stroke="black" stroke-width="3" stroke-miterlimit="10"/>
<path d="M534 289.157V11.1061H623.428V58.6713L535.011 58.4103L534.7 289.157H534Z" fill="black" stroke="black" stroke-width="2" stroke-miterlimit="10"/>
<path d="M386 47.5978V70.5892H390.542V47.5978H386Z" fill="black" stroke="black" stroke-miterlimit="10"/>
<path d="M486.839 160.865V253.978H492.467V160.865H486.839Z" fill="black" stroke="black" stroke-miterlimit="10"/>
<path d="M903 79.3297V150.265H914.257V79.3297H903Z" fill="black" stroke="black" stroke-miterlimit="10"/>
<path d="M931.498 79.3597V150.295H942.755V79.3597H931.498Z" fill="black" stroke="black" stroke-miterlimit="10"/>
</g>
<defs>
<clipPath id="clip0_69_2">
<rect width="1112" height="284" fill="white"/>
</clipPath>
</defs>
</svg>
