<svg width="1112" height="172" viewBox="0 0 1112 172" fill="none" xmlns="http://www.w3.org/2000/svg">
<g clip-path="url(#clip0_69_2)">
<path d="M1013.04 38.3161C1013.04 38.3161 1024.31 63.198 1027.7 80.9347C1031.09 98.6715 1062.23 72.1372 1037.8 45.5556C1013.36 18.9741 1108.56 14.3943 1111.93 34.3344C1115.3 54.2745 1000.37 137.403 1062.49 174.576C1124.61 211.749 1021.14 220.389 1013.04 201.11C1004.94 181.831 1060.22 90.8182 1062.51 72.8768C1064.81 54.9355 1047.91 87.4817 1046.24 90.8182C1044.56 94.1547 1037.14 127.126 1013.04 119.603" fill="#86BA6E"/>
<path d="M1013.04 38.3161C1013.04 38.3161 1024.31 63.198 1027.7 80.9347C1031.09 98.6715 1062.23 72.1372 1037.8 45.5556C1013.36 18.9741 1108.56 14.3943 1111.93 34.3344C1115.3 54.2745 1000.37 137.403 1062.49 174.576C1124.61 211.749 1021.14 220.389 1013.04 201.11C1004.94 181.831 1060.22 90.8182 1062.51 72.8768C1064.81 54.9355 1047.91 87.4817 1046.24 90.8182C1044.56 94.1547 1037.14 127.126 1013.04 119.603" stroke="#86BA6E" stroke-width="2" stroke-miterlimit="10"/>
<path d="M742.715 166.613C742.954 161.891 750.694 115.291 752.33 113.213C753.966 111.136 786.981 108.492 797.634 97.6328C808.287 86.7735 777.685 58.1461 789.056 49.8364C800.427 41.5267 824.385 41.5896 832.285 45.6815C840.185 49.7734 824.046 70.6106 826.44 80.3052C828.834 89.9998 842.918 93.8084 851.157 100.67C859.396 107.532 832.285 110.428 830.909 116.408C829.532 122.389 853.211 132.618 850.119 132.823C847.027 133.028 809.982 116.125 805.514 115.086C801.045 114.048 795.918 114.457 787.68 116.66C779.441 118.863 754.724 166.817 784.927 170.642C815.129 174.466 847.047 138.017 856.982 157.123C866.916 176.229 889.937 168.564 893.707 166.266C897.478 163.969 905.557 142.911 913.138 146.846C920.718 150.78 926.882 141.369 928.319 137.403C929.755 133.437 917.127 120.28 917.127 120.28C914.235 107.815 921.456 106.116 930.852 104.101C940.248 102.087 931.57 119.839 931.57 121.586C931.57 123.333 938.792 133.405 967.339 121.586C995.885 109.767 970.231 70.8467 969.493 54.2273C968.755 37.6079 1005.62 44.5956 1005.62 48.4672C1005.62 52.3387 990.08 64.0636 1000.57 70.8467C1011.07 77.6297 993.711 90.5349 994.07 104.746C994.27 113.198 1003.69 116.723 1012.34 119.587V38.3161C1010.38 36.896 1009.18 34.9359 1008.99 32.8393C1008.99 25.647 993.352 29.1251 970.67 30.0851C947.988 31.0452 953.155 58.6969 955.03 63.0091C957.025 67.5889 953.474 118.627 943.3 121.476C933.126 124.325 937.834 111.529 945.654 101.583C953.474 91.6366 927.7 94.4852 913.576 97.318C899.453 100.151 910.445 108.681 911.243 119.099C912.04 129.518 926.882 128.149 925.306 137.592C923.73 147.034 915.93 139.48 909.667 129.534C903.403 119.587 888.561 129.062 888.022 133.799C887.483 138.536 901.886 158.24 888.022 164.535C874.158 170.83 873.001 152.637 873.36 147.034C873.719 141.432 848.743 142.848 821.014 147.743C793.285 152.637 809.464 139.339 817.543 133.043C825.622 126.748 868.372 144.249 868.372 138.646C868.372 133.043 853.371 131.643 853.371 125.347C853.371 119.052 871.844 112.065 873.001 108.775C874.158 105.486 873.001 98.0735 862.607 94.6111C852.214 91.1487 841.801 66.6289 851.057 63.135C860.313 59.6412 856.742 46.3111 854.508 40.6926C852.274 35.0741 829.093 35.798 817.543 25.9933C805.993 16.1885 786.363 23.9001 780.578 24.6083C774.793 25.3165 770.184 38.5994 753.388 41.3851C736.591 44.1707 737.827 58.8857 742.456 68.6748C747.084 78.4639 757.477 94.5639 751.692 99.4584C745.907 104.353 726.277 105.754 736.67 117.636C747.064 129.518 736.431 159.94 736.152 160.491C736.152 160.491 721.031 155.769 713.829 160.16C706.628 164.551 729.988 182.98 729.988 182.98C729.988 182.98 741.977 182.382 742.715 166.613Z" fill="#86BA6E" stroke="#86BA6E" stroke-width="2" stroke-miterlimit="10"/>
<path d="M247.984 158.193C248.223 153.471 255.964 106.871 257.599 104.794C259.235 102.716 292.251 100.072 302.903 89.213C313.556 78.3537 282.954 49.7263 294.325 41.4166C305.696 33.1069 329.655 33.1069 337.554 37.2617C345.454 41.4166 329.315 62.1908 331.709 71.8854C334.103 81.58 348.187 85.3886 356.426 92.2504C364.665 99.1122 337.554 102.008 336.178 107.988C334.801 113.969 358.481 124.199 355.389 124.403C352.296 124.608 315.252 107.689 310.783 106.666C306.314 105.643 301.188 106.037 292.949 108.24C284.71 110.444 259.993 158.397 290.196 162.143C320.398 165.889 352.316 129.518 362.251 148.608C372.185 167.699 395.206 160.034 398.977 157.752C402.747 155.47 410.826 134.381 418.407 138.316C425.987 142.25 432.152 132.855 433.588 128.873C435.024 124.891 422.397 111.813 422.397 111.813C419.504 99.3483 426.725 97.6486 436.121 95.6341C445.517 93.6196 436.84 111.372 436.84 113.135C436.84 114.897 444.061 124.938 472.608 113.135C501.155 101.331 475.5 62.3796 474.762 45.7603C474.024 29.1409 510.89 36.1286 510.89 40.0001C510.89 43.8717 495.349 55.5965 505.843 62.3796C516.336 69.1627 498.98 82.0679 499.339 96.2951C499.539 104.746 508.955 108.272 517.612 111.12V29.8963C515.648 28.4762 514.449 26.5161 514.261 24.4195C514.261 17.243 498.621 20.7211 475.939 21.6653C453.257 22.6096 458.424 50.2771 460.299 54.5893C462.294 59.1691 458.743 110.223 448.569 113.056C438.396 115.889 443.103 103.11 450.923 93.1632C458.743 83.2168 432.969 86.0654 418.846 88.914C404.722 91.7625 415.714 100.277 416.512 110.695C417.31 121.114 432.152 119.682 430.576 129.156C429 138.63 421.2 131.06 414.936 121.114C408.672 111.168 393.83 120.642 393.291 125.363C392.753 130.085 407.156 149.804 393.291 156.1C379.427 162.395 378.27 144.202 378.629 138.615C378.988 133.028 354.032 134.444 326.283 139.307C298.534 144.17 314.733 130.919 322.812 124.624C330.891 118.328 373.642 135.813 373.642 130.211C373.642 124.608 358.64 123.223 358.64 116.928C358.64 110.632 377.113 103.629 378.27 100.356C379.427 97.082 378.27 89.6379 367.876 86.1913C357.483 82.7446 347.07 58.2091 356.326 54.7152C365.582 51.2214 362.091 38.0014 359.777 32.3987C357.463 26.7959 334.362 27.4255 322.812 17.5892C311.262 7.75292 291.632 15.4803 285.847 16.1885C280.062 16.8967 275.454 30.1796 258.657 32.981C241.86 35.7824 243.097 50.4659 247.725 60.255C252.353 70.0441 262.746 86.1441 256.961 91.0386C251.176 95.9331 231.546 97.3338 241.94 109.232C252.333 121.13 241.7 151.52 241.421 152.071C241.421 152.071 226.3 147.349 219.098 151.74C211.897 156.131 235.257 174.576 235.257 174.576C235.257 174.576 247.246 173.962 247.984 158.193Z" fill="#86BA6E" stroke="#86BA6E" stroke-width="2" stroke-miterlimit="10"/>
<path d="M149.816 221.9C139.502 216.88 128.63 200.26 116.74 198.293C104.392 196.279 115.683 184.585 125.219 177.724C134.754 170.862 140.081 196.011 171.899 199.049C203.717 202.086 167.67 170.122 153.945 172.562C140.22 175.001 135.991 167.069 143.332 157.17C150.673 147.271 186.841 145.744 195.319 138.142C203.797 130.541 176.228 117.573 165.615 120.831C155.002 124.088 135.911 154.164 128.49 138.142C121.069 122.121 170.921 105.392 175.171 90.6294C179.42 75.8671 146.444 65.8262 137.966 51.4731C129.488 37.12 151.751 26.2923 153.925 7.20204C156.1 -11.8882 122.007 -24.0222 106.188 -24.0222C90.3682 -24.0222 71.1175 -24.7776 73.2321 27.0005C75.3467 78.7786 26.5519 49.8364 24.4373 90.6608C22.3227 131.485 58.3503 115.322 60.5048 129.581C62.6592 143.84 37.1646 144.265 35.0501 157.201C32.9355 170.138 35.0501 157.201 51.0091 199.851C66.9682 242.501 23.4199 239.432 19.091 232.586C14.7621 225.74 31.8184 217.352 19.091 211.261C6.36367 205.171 0 216.298 0 216.298C0 217.415 1.15703 217.871 7.06188 218.123C12.9667 218.375 10.6726 223.93 10.6726 234.349C10.6726 244.768 40.5958 239.92 53.2633 235.278C65.9308 230.635 68.7436 184.334 68.4245 176.229C68.1053 168.123 90.3681 144.501 91.984 131.06C93.5999 117.62 57.3528 111.026 55.7569 108.272C54.161 105.518 25.734 82.5085 62.7789 73.7424C99.8239 64.9764 86.3185 55.2503 91.1661 48.7662C96.0137 42.2821 87.5155 -9.51175 94.697 -17.6168C101.879 -25.7219 127.513 -14.8312 136.59 1.1429C145.666 17.117 100.462 12.5844 100.462 30.1953C100.462 47.8062 129.827 52.4174 143.053 72.5621C156.279 92.7068 125.259 85.1525 111.135 113.701C97.0111 142.25 123.324 142.644 133.537 144.989C143.751 147.333 163.56 125.001 168.508 123.994C173.455 122.987 179.28 128.275 179.48 133.94C179.679 139.606 144.569 145.964 138.584 154.258C132.6 162.552 131.483 168.422 142.355 172.955C144.689 173.915 159.571 175.111 159.571 175.111C175.21 178.101 184.307 192.423 176.507 196.389C168.707 200.355 170.522 192.281 158.813 187.308C147.103 182.335 150.494 186.82 138.146 179.691C129.009 174.434 118.636 168.674 109.679 171.145C104.791 172.514 80.4536 188.237 82.5682 207.862C84.4234 225.016 125.179 222.026 144.848 225.441" fill="#86BA6E"/>
<path d="M517.612 29.8962C517.612 29.8962 527.308 39.8269 527.308 74.2145C527.308 108.602 573.948 101.803 584.102 93.6195C594.256 85.4358 608.34 96.6727 609.377 100.261C610.414 103.849 652.706 118.974 624.598 73.4119C587.054 12.6474 595.173 -24.0223 595.173 -24.5101H816.206C816.206 -24.0223 745.228 10.2237 724.94 55.0141C704.653 99.8046 646.302 55.0141 666.869 102.228C687.437 149.442 763.482 174.23 751.313 192.628C739.144 211.025 654.98 174.592 654.98 174.592C654.98 174.592 687.437 160.632 673.233 137.434C659.03 114.236 641.814 82.2409 651.948 75.0329C662.082 67.8249 664.117 56.6352 694.538 55.8325C724.96 55.0299 693.521 0.670721 693.521 0.670721H634.712C634.712 0.670721 662.082 11.0263 651.948 35.0269C641.814 59.0274 634.712 88.6149 642.831 104.62C650.95 120.626 614.424 138.017 599.223 115.81C584.022 93.6038 556.632 121.413 549.531 121.413C542.429 121.413 527.088 124.151 517.612 111.183" fill="#86BA6E"/>
<path d="M96.9863 177.226H97.8753V138.96H16V163.066L96.966 162.927L96.9863 177.226Z" fill="black" stroke="black" stroke-width="3" stroke-miterlimit="10"/>
<path d="M534 175.123V6.72626H623.428V35.5333L535.011 35.3753L534.7 175.123H534Z" fill="black" stroke="black" stroke-width="2" stroke-miterlimit="10"/>
<path d="M386 28.8269V42.7512H390.542V28.8269H386Z" fill="black" stroke="black" stroke-miterlimit="10"/>
<path d="M486.839 97.4255V153.817H492.467V97.4255H486.839Z" fill="black" stroke="black" stroke-miterlimit="10"/>
<path d="M903 48.0447V91.0056H914.257V48.0447H903Z" fill="black" stroke="black" stroke-miterlimit="10"/>
<path d="M931.498 48.0629V91.0238H942.755V48.0629H931.498Z" fill="black" stroke="black" stroke-miterlimit="10"/>
</g>
<defs>
<clipPath id="clip0_69_2">
<rect width="1112" height="172" fill="white"/>
</clipPath>
</defs>
</svg>
