<svg width="1158" height="180" viewBox="0 0 1158 180" fill="none" xmlns="http://www.w3.org/2000/svg">
<g clip-path="url(#clip0_76_50)">
<path d="M724.314 138.136H650.48V148.725H724.314V138.136Z" fill="black" stroke="black" stroke-miterlimit="10"/>
<path d="M686.979 111.672H578.533V122.262H686.979V111.672Z" fill="black" stroke="black" stroke-miterlimit="10"/>
<path d="M146.753 97.6079H72.9194V108.197H146.753V97.6079Z" fill="black" stroke="black" stroke-miterlimit="10"/>
<path d="M109.418 71.1447H0.97229V81.7341H109.418V71.1447Z" fill="black" stroke="black" stroke-miterlimit="10"/>
<path d="M253.818 75.6682L331.774 75.6682V59.9999L253.818 59.9999V75.6682Z" fill="black" stroke="black" stroke-miterlimit="10"/>
<path d="M253.818 139.328H263.716V67.8342H253.818V139.328Z" fill="black" stroke="black" stroke-miterlimit="10"/>
<path d="M253.818 115.333L331.774 115.333V99.6642L253.818 99.6642V115.333Z" fill="black" stroke="black" stroke-miterlimit="10"/>
<path d="M253.818 178.972H263.716V107.478H253.818V178.972Z" fill="black" stroke="black" stroke-miterlimit="10"/>
<path d="M994.719 161.679C994.719 118.622 1024.68 83.7286 1061.65 83.7286C1066.23 83.7227 1070.79 84.2607 1075.26 85.3324V21.8986H1007.2C1008.58 27.9589 1009.28 34.1706 1009.28 40.4044C1009.28 61.0782 1001.52 80.9052 987.692 95.5238C973.868 110.142 955.117 118.355 935.566 118.355C933.622 118.355 931.502 118.355 929.5 118.067V176.032H995.944C995.158 171.292 994.749 166.491 994.719 161.679V161.679Z" fill="black" stroke="black" stroke-miterlimit="10"/>
<path d="M538.632 127.485C538.632 127.485 544.99 139.184 531.884 144.119C518.778 149.054 473.218 133.592 454.103 144.448C434.989 155.305 423.166 142.906 431.43 137.067C439.695 131.227 502.93 136.326 505.089 133.201C507.247 130.075 434.114 113.646 421.377 116.052C408.641 118.458 463.748 28.2729 480.529 81.2612C497.311 134.25 511.136 124.832 512.808 122.694C514.481 120.555 451.245 47.7451 482.396 50.0069C482.396 50.0069 488.638 42.399 481.016 34.3181C473.393 26.2372 517.009 29.4243 505.769 57.1625C494.53 84.9007 521.325 131.309 525.623 127.526C529.92 123.742 537.232 120.041 538.632 127.485Z" fill="#F6CA6A"/>
<path d="M833.207 35.7985C833.207 35.7985 827.626 24.4277 840.246 20.2948C852.866 16.1618 895.529 32.7554 914.041 23.2557C932.553 13.756 943.364 26.011 935.294 31.2132C927.224 36.4154 867.392 28.9103 865.292 31.7889C863.191 34.6676 931.93 53.3379 944.122 51.5902C956.315 49.8424 900.604 133.139 886.662 82.1248C872.72 31.1104 859.244 39.4586 857.494 41.4325C855.744 43.4065 913.127 115.147 883.628 111.714C883.628 111.714 877.425 118.684 884.348 126.662C891.27 134.64 849.988 129.808 861.714 103.941C873.439 78.0741 849.755 32.8993 845.516 36.3126C841.277 39.7259 834.315 43.0158 833.207 35.7985Z" fill="#F6CA6A"/>
<path d="M75.1362 41.4736C75.1362 41.4736 69.3027 29.7533 82.3698 25.4764C95.437 21.1995 139.325 38.3277 158.401 28.5401C177.476 18.7526 188.599 31.3777 180.276 36.7649C171.954 42.1522 110.274 34.4209 108.096 37.3612C105.918 40.3016 176.757 59.6299 189.299 57.7382C201.841 55.8465 144.458 141.734 130.108 89.1981C115.757 36.6621 101.873 45.2365 100.143 47.2927C98.4121 49.3489 157.506 123.228 127.074 119.671C127.074 119.671 120.677 126.847 127.813 135.072C134.95 143.297 92.423 138.321 104.479 111.672C116.535 85.024 92.1313 38.4716 87.795 41.9877C83.4588 45.5038 76.264 48.8965 75.1362 41.4736Z" fill="#F6CA6A"/>
<path d="M719.025 60.7813C691.004 60.7813 668.312 38.8827 668.351 11.9876C668.354 8.66671 668.706 5.35648 669.401 2.11784L628.08 2.05615V51.6106C635.551 49.6862 643.338 49.5842 650.852 51.3124C658.366 53.0406 665.409 56.5536 671.449 61.5857C677.49 66.6177 682.368 73.0368 685.716 80.3571C689.063 87.6774 690.792 95.707 690.771 103.838C690.771 105.339 690.771 106.799 690.576 108.259H728.32V59.8971C725.25 60.4615 722.141 60.7572 719.025 60.7813V60.7813Z" fill="#F6CA6A"/>
<path d="M374.981 172.243V-3.00684H464.41V26.9726L375.992 26.8081L375.681 172.243H374.981Z" fill="black" stroke="black" stroke-width="2" stroke-miterlimit="10"/>
</g>
<defs>
<clipPath id="clip0_76_50">
<rect width="1158" height="180" rx="20" fill="white"/>
</clipPath>
</defs>
</svg>
