<svg width="403" height="187" viewBox="0 0 403 187" fill="none" xmlns="http://www.w3.org/2000/svg">
<path d="M1 49.2692L77.6008 27.2045C78.1546 27.045 78.7283 27.3854 78.8536 27.9479L106.045 149.96C106.228 150.78 107.279 151.023 107.803 150.366L158.243 87.1251C158.309 87.0422 158.361 86.9494 158.398 86.85L189.419 3.40839C189.757 2.4981 191.064 2.55583 191.321 3.49242L240.784 183.889C241.03 184.785 242.258 184.891 242.653 184.051L293.73 75.5742C293.895 75.2238 294.247 75.0002 294.634 75.0002L351.529 75C351.827 75 352.11 74.867 352.3 74.6372L401 15.7308" stroke="#C4C4C4" stroke-width="4"/>
</svg>
