<svg width="405" height="365" viewBox="0 0 405 365" fill="none" xmlns="http://www.w3.org/2000/svg">
<rect x="1.5" y="1.5" width="402" height="362" rx="13.5" fill="#F3F3F3" stroke="#222222" stroke-width="3"/>
<line y1="-0.5" x2="299.662" y2="-0.5" transform="matrix(0.00370857 0.999993 -0.999997 0.00243165 103.064 21)" stroke="#222222"/>
<line y1="-0.5" x2="299.662" y2="-0.5" transform="matrix(0.00370857 0.999993 -0.999997 0.00243165 167.412 21)" stroke="#222222"/>
<line y1="-0.5" x2="299.662" y2="-0.5" transform="matrix(0.00370857 0.999993 -0.999997 0.00243165 231.762 21)" stroke="#222222"/>
<line y1="-0.5" x2="299.662" y2="-0.5" transform="matrix(0.00370857 0.999993 -0.999997 0.00243165 296.109 21)" stroke="#222222"/>
<line y1="-0.5" x2="299.662" y2="-0.5" transform="matrix(0.00377325 0.999993 -0.999997 0.00238997 41.9873 21)" stroke="#222222"/>
<line y1="-0.5" x2="299.662" y2="-0.5" transform="matrix(0.00370857 0.999993 -0.999997 0.00243165 359.367 21)" stroke="#222222"/>
</svg>
