<svg width="1214" height="171" viewBox="0 0 1214 171" fill="none" xmlns="http://www.w3.org/2000/svg">
<mask id="mask0_92_495" style="mask-type:alpha" maskUnits="userSpaceOnUse" x="0" y="0" width="1214" height="171">
<rect width="1214" height="171" fill="#C4C4C4"/>
</mask>
<g mask="url(#mask0_92_495)">
<path d="M153.308 134.483C153.308 134.483 163.868 34.7838 152.905 32.3692C141.941 29.9546 138.797 131.243 132.61 134.483C126.424 137.724 102.058 104.838 100.91 78.6828C99.761 52.5273 83.7796 57.4188 81.3411 62.2791C78.9026 67.1395 74.0255 133.315 63.0824 134.717C52.1393 136.119 57.0365 102.844 52.1191 102.844C47.2018 102.844 18 184.801 18 104.402C18 24.0038 47.2421 66.3294 55.7668 58.2288C64.2916 50.1282 94.7429 37.1361 106.956 54.1629C119.168 71.1898 112.719 103.623 117.032 104.465C121.345 105.306 146.012 24.2998 152.381 24.2998C158.749 24.2998 184.384 107.861 184.626 111.677C184.867 115.494 164.855 150.981 153.308 134.483Z" fill="#7C9ECF"/>
<path d="M1173.76 58.8363L1104.47 58.7273V85.3969H1173.76V58.8363Z" fill="black" stroke="black" stroke-width="3" stroke-miterlimit="10"/>
<path d="M691.395 83.1226H611.951V124.28H691.395V83.1226Z" fill="black" stroke="black" stroke-width="3" stroke-miterlimit="10"/>
<path d="M622.35 18.2712H550.403V55.534H622.35V18.2712Z" fill="black" stroke="black" stroke-width="3" stroke-miterlimit="10"/>
<path d="M691.858 11.5569H690.951V91.192H691.858V11.5569Z" fill="black" stroke="black" stroke-width="3" stroke-miterlimit="10"/>
<path d="M240.711 143.503H241.598V105.025H159.938V129.265L240.691 129.125L240.711 143.503Z" fill="black" stroke="black" stroke-width="3" stroke-miterlimit="10"/>
<path d="M903.485 26.874C903.485 26.874 908.402 11.6698 878.112 20.5337C847.822 29.3976 787.201 28.7589 784.743 31.2981C782.284 33.8374 784.743 38.8223 795.383 40.754C806.024 42.6857 871.22 30.6594 862.211 56.6125C853.203 82.5655 793.691 48.3873 788.834 57.8899C783.977 67.3925 788.028 76.8795 795.383 80.0419C802.739 83.2042 801.953 69.2774 805.218 68.6543C808.483 68.0312 904.915 88.4229 903.787 84.4661C902.255 79.1384 858.866 39.5545 918.237 51.1913C918.237 51.1913 907.495 40.754 878.112 40.754C848.729 40.754 795.907 37.5605 798.447 36.2364C800.986 34.9123 898.023 41.5797 903.485 26.874Z" fill="#E84648"/>
<path d="M792.321 204.195C806.891 172.759 824.344 128.953 828.596 129.67C835.207 130.791 825.211 173.553 844.175 196.017C847.036 199.497 851.052 202.321 855.803 204.195H893.429C906.488 200.862 918.177 195.191 923.779 190.674C937.06 179.971 1030.59 233.077 1030.59 127.131C1030.59 21.1842 985.166 129.265 977.568 129.265C969.97 129.265 929.442 87.9362 912.393 89.79C895.343 91.6438 901.813 179.862 888.894 188.368C882.627 192.434 855.541 198.244 853.647 163.755C851.752 129.265 813.844 85.8643 804.352 90.1639C797.339 93.2795 792.744 167.306 783.917 204.273L792.321 204.195Z" fill="#7C9ECF"/>
<path d="M765.598 204.195C762.596 166.45 772.128 90.086 772.128 90.086C763.301 79.5085 751.37 85.1945 741.516 94.37V171.513C745.869 182.666 750.544 194.116 754.998 204.226L765.598 204.195Z" fill="#7C9ECF"/>
<path d="M345.83 31.9019C345.83 31.9019 329.365 187.418 346.455 191.203C363.545 194.989 368.623 36.9803 378.136 31.9019C387.648 26.8234 425.637 78.1531 427.551 118.952C429.466 159.751 454.153 152.149 457.942 144.547C461.731 136.945 469.349 33.7401 486.438 31.5592C503.528 29.3782 495.951 81.2687 503.548 81.2687C511.146 81.2687 556.752 -46.5804 556.752 78.7295C556.752 204.039 511.146 138.222 497.926 150.872C484.705 163.521 437.124 183.788 418.119 157.212C399.115 130.636 409.131 80.0537 402.501 78.7295C395.87 77.4054 357.136 203.806 347.201 203.806C337.265 203.806 297.262 73.433 296.818 67.4822C296.375 61.5314 327.672 6.24482 345.83 31.9019Z" fill="#7C9ECF"/>
<path d="M1153.76 131.723C1153.76 131.723 1166.74 -24.3519 1153.46 -28.1663C1140.18 -31.9808 1136.06 126.606 1128.66 131.695C1121.26 136.784 1091.8 85.2311 1090.35 44.28C1088.91 3.32892 1069.72 10.9374 1066.77 18.5642C1063.81 26.191 1057.78 129.77 1044.49 131.944C1031.21 134.118 1037.16 82.0423 1031.25 82.0356C1025.35 82.029 989.761 210.31 989.903 84.5375C990.045 -41.2346 1025.41 24.8655 1035.7 12.1811C1045.99 -0.503356 1082.99 -20.8034 1097.73 5.88748C1112.47 32.5784 1104.63 83.3381 1109.78 84.6729C1114.93 86.0078 1145.17 -40.8248 1152.89 -40.8161C1160.61 -40.8074 1191.56 90.0814 1191.89 96.0545C1192.23 102.028 1167.85 157.491 1153.76 131.723Z" fill="#7C9ECF"/>
</g>
</svg>
