<svg width="1214" height="171" viewBox="0 0 1214 171" fill="none" xmlns="http://www.w3.org/2000/svg">
<mask id="mask0_92_478" style="mask-type:alpha" maskUnits="userSpaceOnUse" x="0" y="0" width="1214" height="171">
<rect width="1214" height="171" fill="#C4C4C4"/>
</mask>
<g mask="url(#mask0_92_478)">
<path d="M943.763 24.8806C943.763 24.8806 954.382 49.0949 957.577 66.3559C960.773 83.6168 990.112 57.7943 967.088 31.9259C944.064 6.0574 1033.75 1.60049 1036.93 21.0057C1040.11 40.4108 931.828 121.309 990.357 157.485C1048.89 193.661 951.394 202.07 943.763 183.308C936.132 164.546 988.214 75.9742 990.375 58.5142C992.537 41.0541 976.617 72.7273 975.038 75.9742C973.459 79.2212 966.468 111.308 943.763 103.987" fill="#86BA6E"/>
<path d="M943.763 24.8806C943.763 24.8806 954.382 49.0949 957.577 66.3559C960.773 83.6168 990.112 57.7943 967.088 31.9259C944.064 6.0574 1033.75 1.60049 1036.93 21.0057C1040.11 40.4108 931.828 121.309 990.357 157.485C1048.89 193.661 951.394 202.07 943.763 183.308C936.132 164.546 988.214 75.9742 990.375 58.5142C992.537 41.0541 976.617 72.7273 975.038 75.9742C973.459 79.2212 966.468 111.308 943.763 103.987" stroke="#86BA6E" stroke-width="2" stroke-miterlimit="10"/>
<path d="M692.257 150.029C692.48 145.422 699.707 99.9502 701.234 97.9231C702.762 95.896 733.587 93.316 743.533 82.7198C753.479 72.1236 724.908 44.1894 735.524 36.081C746.141 27.9726 768.51 28.034 775.886 32.0268C783.261 36.0196 768.193 56.3521 770.428 65.8119C772.663 75.2717 785.813 78.9881 793.505 85.6837C801.198 92.3792 775.886 95.2049 774.6 101.041C773.315 106.876 795.424 116.858 792.537 117.058C789.65 117.257 755.062 100.764 750.89 99.7505C746.718 98.737 741.931 99.1363 734.239 101.286C726.547 103.436 703.469 150.229 731.669 153.96C759.868 157.692 789.669 122.125 798.944 140.769C808.22 159.412 829.714 151.933 833.234 149.691C836.754 147.449 844.297 126.901 851.375 130.741C858.453 134.58 864.208 125.396 865.549 121.527C866.89 117.657 855.1 104.818 855.1 104.818C852.399 92.6557 859.142 90.9971 867.915 89.0315C876.687 87.0658 868.585 104.388 868.585 106.093C868.585 107.798 875.328 117.626 901.981 106.093C928.634 94.5599 904.681 56.5824 903.992 40.3656C903.303 24.1487 937.723 30.9672 937.723 34.745C937.723 38.5228 923.214 49.9636 933.011 56.5824C942.808 63.2012 926.604 75.7938 926.939 89.6611C927.125 97.9077 935.917 101.348 944 104.143V24.8398C942.166 23.454 941.046 21.5414 940.871 19.4956C940.871 12.4775 926.268 15.8714 905.091 16.8082C883.914 17.7449 888.738 44.7269 890.489 48.9347C892.351 53.4035 889.036 103.206 879.537 105.985C870.038 108.765 874.434 96.2799 881.735 86.5744C889.036 76.8688 864.972 79.6484 851.785 82.4127C838.598 85.1769 848.861 93.5003 849.606 103.667C850.351 113.833 864.208 112.497 862.737 121.711C861.265 130.925 853.983 123.554 848.134 113.848C842.286 104.143 828.428 113.387 827.925 118.01C827.423 122.632 840.87 141.859 827.925 148.002C814.981 154.145 813.9 136.392 814.236 130.925C814.571 125.458 791.252 126.84 765.362 131.616C739.473 136.392 754.578 123.415 762.121 117.273C769.665 111.13 809.579 128.207 809.579 122.74C809.579 117.273 795.573 115.906 795.573 109.763C795.573 103.62 812.82 96.802 813.9 93.5924C814.981 90.3829 813.9 83.1498 804.197 79.7713C794.493 76.3928 784.77 52.4668 793.412 49.0576C802.055 45.6483 798.721 32.6411 796.635 27.1587C794.548 21.6763 772.906 22.3827 762.121 12.8154C751.337 3.24806 733.01 10.7729 727.608 11.464C722.207 12.155 717.904 25.1162 702.222 27.8344C686.539 30.5525 687.694 44.9112 692.015 54.4632C696.336 64.0151 706.04 79.7252 700.638 84.5012C695.237 89.2772 676.909 90.6439 686.613 102.238C696.317 113.833 686.39 143.518 686.129 144.055C686.129 144.055 672.011 139.448 665.287 143.733C658.563 148.017 680.374 166 680.374 166C680.374 166 691.568 165.416 692.257 150.029Z" fill="#86BA6E" stroke="#86BA6E" stroke-width="2" stroke-miterlimit="10"/>
<path d="M231.257 142.015C231.48 137.409 238.707 91.9425 240.234 89.9157C241.762 87.8888 272.587 85.3091 282.533 74.7141C292.479 64.1191 263.907 36.1883 274.524 28.0808C285.141 19.9734 307.51 19.9734 314.886 24.0271C322.261 28.0808 307.193 48.3495 309.428 57.8082C311.663 67.2669 324.813 70.9829 332.505 77.6777C340.198 84.3725 314.886 87.1978 313.6 93.0327C312.315 98.8677 334.424 108.848 331.537 109.048C328.65 109.248 294.062 92.741 289.89 91.7429C285.718 90.7448 280.931 91.1287 273.239 93.2784C265.547 95.4281 242.469 142.215 270.669 145.869C298.868 149.524 328.669 114.038 337.944 132.664C347.22 151.29 368.714 143.812 372.234 141.585C375.754 139.359 383.297 118.783 390.375 122.622C397.453 126.461 403.208 117.294 404.549 113.409C405.89 109.524 394.1 96.764 394.1 96.764C391.399 84.6028 398.142 82.9445 406.915 80.979C415.687 79.0136 407.585 96.3341 407.585 98.0538C407.585 99.7736 414.328 109.57 440.981 98.0538C467.634 86.5375 443.681 48.5338 442.992 32.3188C442.303 16.1039 476.723 22.9215 476.723 26.6989C476.723 30.4762 462.214 41.9157 472.011 48.5338C481.808 55.1518 465.604 67.7429 465.939 81.6239C466.125 89.8696 474.917 93.3091 483 96.0884V16.8409C481.166 15.4553 480.046 13.543 479.871 11.4974C479.871 4.49546 465.268 7.88893 444.091 8.81023C422.914 9.73153 427.738 36.7257 429.489 40.933C431.351 45.4013 428.036 95.2132 418.537 97.9771C409.038 100.741 413.434 88.2727 420.735 78.5683C428.036 68.8639 403.972 71.6431 390.785 74.4224C377.598 77.2017 387.861 85.5088 388.606 95.6738C389.351 105.839 403.208 104.442 401.737 113.685C400.265 122.929 392.983 115.543 387.134 105.839C381.286 96.1345 367.428 105.378 366.925 109.985C366.423 114.591 379.87 133.831 366.925 139.973C353.981 146.115 352.9 128.365 353.236 122.914C353.571 117.463 330.27 118.845 304.362 123.589C278.454 128.334 293.578 115.405 301.121 109.263C308.665 103.121 348.579 120.18 348.579 114.714C348.579 109.248 334.573 107.896 334.573 101.754C334.573 95.6124 351.82 88.7794 352.9 85.5855C353.981 82.3917 352.9 75.1287 343.197 71.766C333.493 68.4032 323.77 44.4647 332.412 41.0559C341.055 37.647 337.795 24.7488 335.635 19.2824C333.474 13.816 311.906 14.4302 301.121 4.83327C290.337 -4.76364 272.01 2.77569 266.608 3.46667C261.207 4.15765 256.904 17.1173 241.222 19.8505C225.539 22.5837 226.694 36.91 231.015 46.4608C235.336 56.0117 245.04 71.7199 239.638 76.4953C234.237 81.2708 215.909 82.6374 225.613 94.2458C235.317 105.854 225.39 135.505 225.129 136.042C225.129 136.042 211.011 131.436 204.287 135.72C197.563 140.004 219.374 158 219.374 158C219.374 158 230.568 157.401 231.257 142.015Z" fill="#86BA6E" stroke="#86BA6E" stroke-width="2" stroke-miterlimit="10"/>
<path d="M139.229 203.811C129.645 198.915 119.541 182.709 108.491 180.791C97.0157 178.826 107.509 167.423 116.371 160.732C125.232 154.041 130.182 178.565 159.752 181.527C189.322 184.489 155.822 153.32 143.067 155.698C130.312 158.077 126.382 150.342 133.204 140.689C140.027 131.036 173.638 129.547 181.517 122.135C189.397 114.722 163.775 102.076 153.913 105.253C144.05 108.43 126.308 137.758 119.411 122.135C112.514 106.512 158.844 90.1979 162.793 75.8026C166.742 61.4072 136.096 51.6159 128.217 37.6195C120.338 23.6232 141.028 13.0646 143.049 -5.55121C145.069 -24.167 113.386 -35.9994 98.6842 -35.9994C83.9826 -35.9994 66.0923 -36.7361 68.0574 13.7552C70.0226 64.2464 24.6757 36.0235 22.7105 75.8333C20.7454 115.643 54.2272 99.8818 56.2294 113.786C58.2316 127.69 34.5385 128.105 32.5734 140.72C30.6082 153.335 32.5734 140.72 47.4047 182.31C62.2361 223.9 21.765 220.907 17.742 214.231C13.719 207.555 29.57 199.376 17.742 193.436C5.91401 187.497 0 198.347 0 198.347C0 199.437 1.07527 199.882 6.56288 200.128C12.0505 200.373 9.91847 205.791 9.91847 215.95C9.91847 226.11 37.7273 221.383 49.4997 216.856C61.2721 212.328 63.8861 167.178 63.5895 159.274C63.2929 151.371 83.9826 128.335 85.4843 115.229C86.986 102.122 53.3002 95.6921 51.8171 93.0064C50.3339 90.3207 23.9156 67.8836 58.3429 59.3354C92.7702 50.7872 80.2192 41.3028 84.7242 34.9799C89.2292 28.657 81.3315 -21.8496 88.0056 -29.7532C94.6797 -37.6569 118.503 -27.0368 126.938 -11.4598C135.373 4.11732 93.3634 -0.302578 93.3634 16.8706C93.3634 34.0437 120.653 38.5404 132.945 58.1844C145.236 77.8284 116.408 70.4619 103.282 98.3011C90.1562 126.14 114.609 126.524 124.101 128.811C133.594 131.097 152.003 109.32 156.601 108.338C161.198 107.356 166.612 112.512 166.797 118.037C166.983 123.562 134.354 129.762 128.792 137.85C123.23 145.938 122.192 151.662 132.296 156.082C134.465 157.018 148.295 158.185 148.295 158.185C162.83 161.1 171.284 175.066 164.035 178.934C156.786 182.801 158.473 174.928 147.591 170.078C136.708 165.229 139.86 169.603 128.384 162.651C119.893 157.525 110.253 151.908 101.929 154.317C97.3865 155.652 74.7686 170.984 76.7338 190.121C78.4579 206.85 116.334 203.934 134.613 207.264" fill="#86BA6E"/>
<path d="M483 16.8581C483 16.8581 492.026 26.5062 492.026 59.9152C492.026 93.3242 535.45 86.7188 544.904 78.768C554.357 70.8171 567.47 81.7343 568.436 85.2204C569.401 88.7066 608.776 103.4 582.607 59.1354C547.652 0.100075 555.212 -35.526 555.212 -36H761C761 -35.526 694.917 -2.25461 676.029 41.2612C657.14 84.777 602.814 41.2612 621.963 87.1317C641.112 133.002 711.912 157.084 700.582 174.958C689.253 192.833 610.893 157.436 610.893 157.436C610.893 157.436 641.112 143.873 627.888 121.336C614.664 98.7981 598.635 67.7132 608.07 60.7103C617.505 53.7074 619.4 42.8361 647.724 42.0563C676.047 41.2765 646.762 -13.36 646.762 -13.36L617.759 -32.4159L591.979 -13.36C591.979 -13.36 617.505 -1.47481 608.07 21.8427C598.635 45.1602 592.023 73.9057 599.582 89.4558C607.142 105.006 573.135 121.902 558.982 100.327C544.829 78.7527 519.329 105.77 512.717 105.77C506.105 105.77 491.822 108.431 483 95.8318" fill="#86BA6E"/>
<path d="M91.1747 161H92V124H16V147.309L91.156 147.174L91.1747 161Z" fill="black" stroke="black" stroke-width="3" stroke-miterlimit="10"/>
<path d="M499 174V10H582V38.0549L499.938 37.901L499.65 174H499Z" fill="black" stroke="black" stroke-width="2" stroke-miterlimit="10"/>
<path d="M360 17V30H365V17H360Z" fill="black" stroke="black" stroke-miterlimit="10"/>
<path d="M454 83V139H459V83H454Z" fill="black" stroke="black" stroke-miterlimit="10"/>
<path d="M843 36V78H852V36H843Z" fill="black" stroke="black" stroke-miterlimit="10"/>
<path d="M869 36V78H880V36H869Z" fill="black" stroke="black" stroke-miterlimit="10"/>
<path d="M1149.23 238.881C1139.64 234.005 1129.54 217.861 1118.49 215.95C1107.02 213.993 1117.51 202.635 1126.37 195.97C1135.23 189.304 1140.18 213.734 1169.75 216.684C1199.32 219.635 1165.82 188.586 1153.07 190.955C1140.31 193.325 1136.38 185.62 1143.2 176.004C1150.03 166.389 1183.64 164.906 1191.52 157.522C1199.4 150.138 1173.78 137.541 1163.91 140.706C1154.05 143.87 1136.31 173.084 1129.41 157.522C1122.51 141.959 1168.84 125.709 1172.79 111.369C1176.74 97.0297 1146.1 87.2763 1138.22 73.3342C1130.34 59.3921 1151.03 48.8744 1153.05 30.3308C1155.07 11.7872 1123.39 0.000589857 1108.68 0.000589857C1093.98 0.000589857 1076.09 -0.733205 1078.06 49.5623C1080.02 99.8578 1034.68 71.7443 1032.71 111.4C1030.75 151.055 1064.23 135.355 1066.23 149.206C1068.23 163.056 1044.54 163.469 1042.57 176.035C1040.61 188.601 1042.57 176.035 1057.4 217.464C1072.24 258.893 1031.77 255.911 1027.74 249.261C1023.72 242.611 1039.57 234.463 1027.74 228.547C1015.91 222.631 1010 233.439 1010 233.439C1010 234.524 1011.08 234.968 1016.56 235.212C1022.05 235.457 1019.92 240.853 1019.92 250.974C1019.92 261.094 1047.73 256.385 1059.5 251.876C1071.27 247.366 1073.89 202.39 1073.59 194.517C1073.29 186.644 1093.98 163.698 1095.48 150.643C1096.99 137.587 1063.3 131.182 1061.82 128.506C1060.33 125.831 1033.92 103.481 1068.34 94.9659C1102.77 86.4508 1090.22 77.0032 1094.72 70.7048C1099.23 64.4064 1091.33 14.0956 1098.01 6.22256C1104.68 -1.65045 1128.5 8.92843 1136.94 24.4451C1145.37 39.9618 1103.36 35.5591 1103.36 52.6656C1103.36 69.7722 1130.65 74.2514 1142.94 93.8193C1155.24 113.387 1126.41 106.049 1113.28 133.781C1100.16 161.512 1124.61 161.894 1134.1 164.172C1143.59 166.45 1162 144.757 1166.6 143.778C1171.2 142.8 1176.61 147.937 1176.8 153.44C1176.98 158.944 1144.35 165.12 1138.79 173.176C1133.23 181.233 1132.19 186.935 1142.3 191.338C1144.46 192.27 1158.3 193.432 1158.3 193.432C1172.83 196.337 1181.28 210.248 1174.03 214.1C1166.79 217.953 1168.47 210.11 1157.59 205.28C1146.71 200.449 1149.86 204.806 1138.38 197.881C1129.89 192.775 1120.25 187.179 1111.93 189.58C1107.39 190.91 1084.77 206.182 1086.73 225.245C1088.46 241.908 1126.33 239.004 1144.61 242.321" fill="#86BA6E"/>
</g>
</svg>
