<svg width="1214" height="171" viewBox="0 0 1214 171" fill="none" xmlns="http://www.w3.org/2000/svg">
<mask id="mask0_92_634" style="mask-type:alpha" maskUnits="userSpaceOnUse" x="0" y="0" width="1214" height="171">
<rect width="1214" height="171" fill="#C4C4C4"/>
</mask>
<g mask="url(#mask0_92_634)">
<path d="M723.342 154.143H649.508V164.732H723.342V154.143Z" fill="black" stroke="black" stroke-miterlimit="10"/>
<path d="M686.007 127.679H577.561V138.269H686.007V127.679Z" fill="black" stroke="black" stroke-miterlimit="10"/>
<path d="M145.781 113.615H71.9473V124.204H145.781V113.615Z" fill="black" stroke="black" stroke-miterlimit="10"/>
<path d="M108.446 87.1514H0V97.7408H108.446V87.1514Z" fill="black" stroke="black" stroke-miterlimit="10"/>
<path d="M1268.45 30H1160V40.5894H1268.45V30Z" fill="black" stroke="black" stroke-miterlimit="10"/>
<path d="M252.846 91.675L330.802 91.675V76.0068L252.846 76.0068V91.675Z" fill="black" stroke="black" stroke-miterlimit="10"/>
<path d="M252.846 155.335H262.744V83.8411H252.846V155.335Z" fill="black" stroke="black" stroke-miterlimit="10"/>
<path d="M252.846 131.339H330.802V115.671L252.846 115.671V131.339Z" fill="black" stroke="black" stroke-miterlimit="10"/>
<path d="M252.846 194.979H262.744V123.485H252.846V194.979Z" fill="black" stroke="black" stroke-miterlimit="10"/>
<path d="M993.747 177.686C993.747 134.629 1023.71 99.7355 1060.68 99.7355C1065.26 99.7297 1069.82 100.268 1074.29 101.339V37.9055H1006.23C1007.61 43.9659 1008.31 50.1776 1008.31 56.4113C1008.31 77.0851 1000.54 96.9122 986.72 111.531C972.895 126.149 954.145 134.362 934.594 134.362C932.65 134.362 930.53 134.362 928.527 134.074V192.038H994.972C994.186 187.299 993.776 182.498 993.747 177.686Z" fill="black" stroke="black" stroke-miterlimit="10"/>
<path d="M537.66 143.492C537.66 143.492 544.018 155.191 530.912 160.126C517.806 165.061 472.246 149.598 453.131 160.455C434.017 171.312 422.194 158.913 430.458 153.073C438.723 147.234 501.958 152.333 504.117 149.208C506.275 146.082 433.142 129.653 420.405 132.059C407.669 134.465 462.776 44.2797 479.557 97.2681C496.339 150.256 510.164 140.839 511.836 138.701C513.509 136.562 450.273 63.7519 481.424 66.0138C481.424 66.0138 487.666 58.4058 480.044 50.3249C472.421 42.2441 516.037 45.4312 504.797 73.1694C493.558 100.908 520.353 147.316 524.651 143.533C528.948 139.749 536.26 136.048 537.66 143.492Z" fill="#F6CA6A"/>
<path d="M832.235 51.8055C832.235 51.8055 826.654 40.4347 839.274 36.3017C851.894 32.1688 894.557 48.7623 913.068 39.2627C931.58 29.763 942.392 42.018 934.322 47.2202C926.252 52.4224 866.419 44.9172 864.319 47.7959C862.219 50.6746 930.958 69.3449 943.15 67.5971C955.342 65.8494 899.632 149.146 885.69 98.1317C871.747 47.1173 858.272 55.4655 856.522 57.4395C854.772 59.4134 912.155 131.154 882.656 127.721C882.656 127.721 876.453 134.691 883.376 142.669C890.298 150.647 849.016 145.815 860.741 119.948C872.467 94.081 848.783 48.9062 844.544 52.3195C840.304 55.7328 833.343 59.0228 832.235 51.8055Z" fill="#F6CA6A"/>
<path d="M74.1642 57.4805C74.1642 57.4805 68.3306 45.7601 81.3978 41.4832C94.465 37.2063 138.353 54.3345 157.428 44.547C176.504 34.7594 187.627 47.3845 179.304 52.7718C170.982 58.159 109.302 50.4277 107.124 53.3681C104.946 56.3084 175.785 75.6368 188.327 73.745C200.869 71.8533 143.486 157.741 129.136 105.205C114.785 52.669 100.901 61.2433 99.1707 63.2995C97.4401 65.3557 156.534 139.235 126.102 135.678C126.102 135.678 119.705 142.854 126.841 151.079C133.978 159.304 91.4509 154.328 103.507 127.679C115.563 101.031 91.1593 54.4784 86.823 57.9945C82.4867 61.5106 75.292 64.9034 74.1642 57.4805Z" fill="#F6CA6A"/>
<path d="M1110.3 88.697C1110.3 88.697 1104.46 76.9767 1117.53 72.6998C1130.6 68.4229 1174.49 85.551 1193.56 75.7635C1212.64 65.976 1223.76 78.6011 1215.44 83.9883C1207.12 89.3756 1145.44 81.6443 1143.26 84.5846C1141.08 87.525 1211.92 106.853 1224.46 104.962C1237 103.07 1179.62 188.957 1165.27 136.422C1150.92 83.8855 1137.04 92.4599 1135.3 94.5161C1133.57 96.5723 1192.67 170.452 1162.24 166.894C1162.24 166.894 1155.84 174.071 1162.97 182.295C1170.11 190.52 1127.58 185.544 1139.64 158.896C1151.7 132.247 1127.29 85.695 1122.96 89.2111C1118.62 92.7272 1111.43 96.1199 1110.3 88.697Z" fill="#F6CA6A"/>
<path d="M718.053 76.7881C690.032 76.7881 667.34 54.8896 667.378 27.9944C667.382 24.6736 667.734 21.3633 668.428 18.1247L627.107 18.063V67.6175C634.579 65.693 642.366 65.591 649.88 67.3192C657.393 69.0474 664.437 72.5605 670.477 77.5925C676.517 82.6245 681.396 89.0436 684.743 96.3639C688.091 103.684 689.82 111.714 689.799 119.845C689.799 121.346 689.799 122.806 689.604 124.266H727.347V75.904C724.277 76.4684 721.169 76.7641 718.053 76.7881Z" fill="#F6CA6A"/>
<path d="M374.009 188.25V13H463.438V42.9794L375.02 42.8149L374.709 188.25H374.009Z" fill="black" stroke="black" stroke-width="2" stroke-miterlimit="10"/>
</g>
</svg>
