<svg width="1214" height="171" viewBox="0 0 1214 171" fill="none" xmlns="http://www.w3.org/2000/svg">
<mask id="mask0_186_30" style="mask-type:alpha" maskUnits="userSpaceOnUse" x="0" y="0" width="1214" height="171">
<rect width="1214" height="171" fill="#C4C4C4"/>
</mask>
<g mask="url(#mask0_186_30)">
<path d="M282.257 18.9861V64.7351H293.514V18.9861H282.257Z" fill="black" stroke="black" stroke-miterlimit="10"/>
<path d="M310.754 19.0055V64.7545H322.011V19.0055H310.754Z" fill="black" stroke="black" stroke-miterlimit="10"/>
<path d="M380.547 24.4348V39.2628H385.09V24.4348H380.547Z" fill="black" stroke="black" stroke-miterlimit="10"/>
<path d="M481.386 97.4854V157.537H487.015V97.4854H481.386Z" fill="black" stroke="black" stroke-miterlimit="10"/>
<path d="M448.069 76.3912V136.443H453.697V76.3912H448.069Z" fill="black" stroke="black" stroke-miterlimit="10"/>
<path d="M536.011 25.6413V25.2521H399.822V75.5935H423.778L423.64 25.8164L536.011 25.6413Z" fill="black" stroke="black" stroke-miterlimit="10"/>
<path d="M579.697 86.0432V131.792H590.954V86.0432H579.697Z" fill="black" stroke="black" stroke-miterlimit="10"/>
<path d="M621.249 43.5242V89.2732H632.506V43.5242H621.249Z" fill="black" stroke="black" stroke-miterlimit="10"/>
<path d="M791.899 130.761V168.473H797.528V130.761H791.899Z" fill="black" stroke="black" stroke-miterlimit="10"/>
<path d="M758.563 117.509V155.221H764.192V117.509H758.563Z" fill="black" stroke="black" stroke-miterlimit="10"/>
<path d="M846.347 59.2085V58.8193H710.158V109.161H734.114L733.976 59.3837L846.347 59.2085Z" fill="black" stroke="black" stroke-miterlimit="10"/>
<path d="M925.008 -0.51215V29.611H936.265V-0.51215H925.008Z" fill="black" stroke="black" stroke-miterlimit="10"/>
<path d="M953.506 -0.531618V29.5916H964.763V-0.531618H953.506Z" fill="black" stroke="black" stroke-miterlimit="10"/>
<path d="M1124.14 62.3415V122.393H1129.77V62.3415H1124.14Z" fill="black" stroke="black" stroke-miterlimit="10"/>
<path d="M1090.8 41.2474V101.299H1096.43V41.2474H1090.8Z" fill="black" stroke="black" stroke-miterlimit="10"/>
<path d="M64.7607 54.7718V69.5999H69.303V54.7718H64.7607Z" fill="black" stroke="black" stroke-miterlimit="10"/>
<path d="M135.423 125.156V152.555H141.051V125.156H135.423Z" fill="black" stroke="black" stroke-miterlimit="10"/>
<path d="M220.244 55.9784V55.5892H84.0552V105.931H108.011L107.872 56.1536L220.244 55.9784Z" fill="black" stroke="black" stroke-miterlimit="10"/>
<path d="M150.709 69.6197C160.445 80.6532 180.115 125.001 181.972 126.519C183.828 128.037 205.453 131.209 194.453 105.542C183.453 79.8748 145.436 70.5148 157.898 61.0381C170.359 51.5614 198.185 96.1818 203.794 94.5472C209.403 92.9126 224.748 84.8175 239.816 48.2533C254.885 11.689 217.816 59.2867 216.118 66.2337C214.419 73.1808 203.952 90.558 198.877 79.0964C193.801 67.6348 228.5 41.0144 225.182 35.2155C221.865 29.4166 150.669 42.5906 147.036 46.8911C143.402 51.1916 147.036 29.3776 157.898 27.2177C168.759 25.0577 180.767 34.8652 185.783 33.0555C190.799 31.2457 218.803 8.86744 197.79 -5.4936C176.778 -19.8546 191.668 5.22853 188.449 9.02311C185.23 12.8177 149.879 14.6858 129.498 35.2738C109.117 55.8619 161.571 64.4629 146.483 65.5916C131.394 66.7202 127.445 48.1949 121.559 54.4413C115.674 60.6878 98.0185 65.4359 162.321 116.848C162.321 116.848 169.293 113.52 160.603 103.479C151.914 93.438 136.035 89.7018 137.299 85.4791C138.563 81.2564 144.369 62.4392 150.709 69.6197Z" fill="#90BE80"/>
<path d="M807.185 51.2499C797.429 62.2834 777.779 106.631 775.902 108.169C774.026 109.706 752.441 112.839 763.421 87.1915C774.401 61.544 812.438 52.1645 799.917 42.6684C787.396 33.1722 759.708 77.812 754.1 76.1774C748.491 74.5429 733.146 66.4477 718.077 29.8835C703.009 -6.68068 740.078 40.917 741.776 47.864C743.475 54.811 753.922 72.1883 758.997 60.7461C764.073 49.304 729.413 22.6446 732.593 16.8457C735.772 11.0468 807.126 24.2208 810.759 28.5214C814.393 32.8219 810.759 11.0079 799.897 8.84792C789.036 6.68793 777.087 16.476 772.091 14.7636C767.094 13.0512 739.11 -9.50229 760.123 -23.8633C781.136 -38.2244 766.166 -13.1607 769.425 -9.26878C772.683 -5.3769 807.995 -3.60609 828.395 16.9819C848.796 37.57 796.323 46.1905 811.411 47.1635C826.499 48.1364 830.449 29.7668 836.334 36.0132C842.22 42.2597 859.856 47.1635 795.553 98.4779C795.553 98.4779 788.601 95.1504 797.271 85.1093C805.941 75.0683 821.858 71.3321 820.594 67.1094C819.331 62.8867 813.564 44.0694 807.185 51.2499Z" fill="#90BE80"/>
<path d="M981.984 139.771C969.286 132.201 921.572 120.759 919.716 119.202C917.859 117.645 910.987 97.2325 938.517 103.498C966.047 109.764 982.024 145.025 989.331 131.228C996.638 117.431 947.266 98.2638 947.858 92.5428C948.451 86.8217 954.118 70.5147 988.008 49.5959C1021.9 28.677 980.78 72.9472 974.183 75.6715C967.587 78.3958 951.966 91.6476 964.309 94.6055C976.652 97.5633 997.31 59.3645 1003.65 61.5245C1009.99 63.6845 1009.12 135.12 1005.47 139.362C1001.81 143.604 1022.94 136.268 1023.24 125.429C1023.54 114.59 1011.65 104.549 1012.52 99.3925C1013.39 94.2357 1031.08 63.198 1049.05 81.1201C1067.02 99.0422 1039.39 88.9039 1036.16 92.679C1032.92 96.4541 1037.14 131.092 1020.06 154.424C1002.98 177.755 985.263 128.329 986.823 143.157C988.383 157.985 1007.5 158.724 1002.27 165.438C997.033 172.151 995.256 190.19 932.77 136.677C932.77 136.677 934.903 129.36 946.436 136.035C957.97 142.709 964.447 157.44 968.456 155.494C972.465 153.548 990.259 144.694 981.984 139.771Z" fill="#90BE80"/>
<path d="M649.647 216.071C636.949 208.501 589.235 197.059 587.379 195.503C585.522 193.946 578.65 173.533 606.2 179.779C633.749 186.026 649.647 221.325 656.974 207.528C664.301 193.732 614.929 174.447 615.6 168.843C616.272 163.239 621.801 146.796 655.671 125.896C689.54 104.997 648.443 149.248 641.846 151.952C635.25 154.657 619.609 167.948 631.972 170.906C644.335 173.864 664.973 135.665 671.312 137.825C677.651 139.985 676.782 211.44 673.129 215.662C669.475 219.885 690.627 212.568 690.903 201.73C691.18 190.891 679.271 180.869 680.179 175.712C681.088 170.556 698.763 139.518 716.735 157.44C734.706 175.362 707.058 165.224 703.819 168.999C700.58 172.774 704.806 207.392 687.723 230.743C670.641 254.095 652.926 204.648 654.506 219.477C656.085 234.305 675.163 235.044 669.93 241.738C664.696 248.432 662.978 266.49 600.532 212.919C600.532 212.919 602.645 205.582 614.178 212.277C625.712 218.971 632.189 233.682 636.198 231.736C640.207 229.79 658.021 220.994 649.647 216.071Z" fill="#90BE80"/>
<path d="M535.261 61.0964C525.525 72.1299 505.855 116.478 503.998 118.015C502.142 119.552 480.536 122.685 491.517 97.0379C502.497 71.3904 540.534 62.011 527.993 52.5148C515.453 43.0186 487.705 87.6585 482.195 86.0823C476.685 84.5061 461.222 76.3526 446.153 39.7884C431.085 3.22415 468.154 50.8219 469.852 57.7689C471.551 64.7159 481.998 82.0931 487.073 70.651C492.149 59.2089 457.45 32.5495 460.768 26.7506C464.086 20.9517 535.3 34.1257 538.934 38.4262C542.568 42.7267 538.934 20.9127 528.072 18.7528C517.21 16.5928 505.183 26.4003 500.187 24.6879C495.19 22.9754 467.166 0.344164 488.199 -14.0169C509.232 -28.3779 494.321 -3.29474 497.58 0.46092C500.838 4.21658 536.15 6.12361 556.55 26.7117C576.951 47.2997 524.478 55.9981 539.546 57.0294C554.615 58.0608 558.585 39.6327 564.489 45.8792C570.394 52.1256 587.951 56.8932 523.649 108.324C523.649 108.324 516.697 104.997 525.367 94.9558C534.037 84.9147 549.934 81.1785 548.69 76.9558C547.446 72.7331 541.62 53.9159 535.261 61.0964Z" fill="#90BE80"/>
<path d="M168.759 162.791V222.843H174.388V162.791H168.759Z" fill="black" stroke="black" stroke-miterlimit="10"/>
<path d="M41.3781 224.945C28.6598 217.394 -19.0341 205.933 -20.8905 204.376C-22.7469 202.819 -29.5603 182.406 -2.06969 188.672C25.4209 194.938 41.3781 230.199 48.7248 216.402C56.0714 202.605 6.71861 183.379 7.39008 177.717C8.06155 172.054 13.5715 155.669 47.4608 134.731C81.3501 113.793 40.2129 158.082 33.4785 160.845C26.7441 163.609 11.2609 176.821 23.604 179.779C35.9471 182.737 56.6638 144.461 63.102 146.698C69.5402 148.936 68.5725 220.294 64.8992 224.536C61.2259 228.778 82.3968 221.442 82.6733 210.603C82.9498 199.764 71.0016 189.743 71.8903 184.586C72.779 179.429 90.4544 148.352 108.525 166.313C126.595 184.274 98.8675 174.097 95.6286 177.872C92.3898 181.647 96.5963 216.285 79.5332 239.617C62.4701 262.949 44.7157 213.522 46.2956 228.35C47.8755 243.178 66.9728 243.917 61.7393 250.631C56.5059 257.344 54.7877 275.364 -7.67841 221.792C-7.67841 221.792 -5.54552 214.475 5.9879 221.15C17.5213 227.825 23.999 242.555 28.008 240.609C32.0171 238.663 49.7122 229.868 41.3781 224.945Z" fill="#90BE80"/>
<path d="M339.233 191.436C326.515 183.866 278.821 172.424 276.964 170.867C275.108 169.31 268.235 148.897 295.765 155.163C323.295 161.429 339.213 196.69 346.56 182.893C353.906 169.096 304.514 149.929 305.186 144.208C305.857 138.487 311.367 122.16 345.256 101.261C379.146 80.3613 338.028 124.612 331.432 127.336C324.836 130.061 309.214 143.312 321.558 146.27C333.901 149.228 354.558 111.029 360.898 113.189C367.237 115.349 366.368 186.785 362.695 191.027C359.021 195.269 380.192 187.933 380.469 177.094C380.745 166.255 368.876 156.214 369.745 151.057C370.614 145.901 388.309 114.863 406.281 132.785C424.252 150.707 396.624 140.569 393.385 144.344C390.146 148.119 394.352 182.757 377.289 206.088C360.226 229.42 342.491 179.993 344.052 194.821C345.612 209.65 364.729 210.389 359.495 217.103C354.262 223.816 352.544 241.835 290.078 188.264C290.078 188.264 292.211 180.947 303.744 187.622C315.277 194.296 321.755 209.027 325.764 207.081C329.773 205.135 347.488 196.359 339.233 191.436Z" fill="#90BE80"/>
<path d="M1178.01 42.4738C1168.28 53.5073 1148.63 97.8358 1146.75 99.3731C1144.87 100.91 1123.29 104.063 1134.27 78.4153C1145.25 52.7678 1183.29 43.3884 1170.74 33.8922C1158.2 24.396 1130.56 68.9191 1124.95 67.3818C1119.34 65.8445 1103.97 57.6521 1088.92 21.1074C1073.88 -15.4374 1110.92 32.1214 1112.62 39.0684C1114.32 46.0154 1124.77 63.3927 1129.84 51.9505C1134.92 40.5084 1100.22 13.849 1103.54 8.06959C1106.86 2.29014 1178.07 15.4252 1181.71 19.7452C1185.34 24.0652 1181.71 2.23177 1170.84 0.0717718C1159.98 -2.08822 1147.95 7.69986 1142.96 5.90959C1137.96 4.11933 1109.94 -18.2979 1130.95 -32.62C1151.96 -46.9421 1137.07 -21.8784 1140.27 -18.1033C1143.47 -14.3282 1178.92 -12.4795 1199.24 8.10851C1219.56 28.6965 1167.17 37.4338 1182.26 38.4262C1197.35 39.4187 1201.3 21.0295 1207.18 27.276C1213.07 33.5225 1230.7 38.29 1166.4 89.6823C1166.4 89.6823 1159.45 86.3742 1168.12 76.3137C1176.79 66.2532 1192.75 62.5364 1191.44 58.3138C1190.14 54.0911 1184.37 35.2738 1178.01 42.4738Z" fill="#90BE80"/>
</g>
</svg>
