<svg width="2449" height="171" viewBox="0 0 2449 171" fill="none" xmlns="http://www.w3.org/2000/svg">
<mask id="mask0_207_224" style="mask-type:alpha" maskUnits="userSpaceOnUse" x="0" y="0" width="2449" height="171">
<rect width="2449" height="171" fill="#C4C4C4"/>
</mask>
<g mask="url(#mask0_207_224)">
<path d="M723.342 154.143H649.508V164.732H723.342V154.143Z" fill="black" stroke="black" stroke-miterlimit="10"/>
<path d="M1607.83 160.08H1534V170.67H1607.83V160.08Z" fill="black" stroke="black" stroke-miterlimit="10"/>
<path d="M686.007 127.68H577.561V138.269H686.007V127.68Z" fill="black" stroke="black" stroke-miterlimit="10"/>
<path d="M1570.49 133.617H1462.05V144.207H1570.49V133.617Z" fill="black" stroke="black" stroke-miterlimit="10"/>
<path d="M145.781 113.615H71.9473V124.205H145.781V113.615Z" fill="black" stroke="black" stroke-miterlimit="10"/>
<path d="M1820.78 89.832H1746.95V100.421H1820.78V89.832Z" fill="black" stroke="black" stroke-miterlimit="10"/>
<path d="M108.446 87.1514H0V97.7408H108.446V87.1514Z" fill="black" stroke="black" stroke-miterlimit="10"/>
<path d="M1783.45 63.3682H1675V73.9576H1783.45V63.3682Z" fill="black" stroke="black" stroke-miterlimit="10"/>
<path d="M1268.45 30H1160V40.5894H1268.45V30Z" fill="black" stroke="black" stroke-miterlimit="10"/>
<path d="M2477.44 9H2368.99V19.5894H2477.44V9Z" fill="black" stroke="black" stroke-miterlimit="10"/>
<path d="M252.846 91.6748L330.802 91.6748V76.0065L252.846 76.0065V91.6748Z" fill="black" stroke="black" stroke-miterlimit="10"/>
<path d="M1927.85 67.8916L2005.8 67.8916V52.2233L1927.85 52.2233V67.8916Z" fill="black" stroke="black" stroke-miterlimit="10"/>
<path d="M252.846 155.335H262.744V83.8408H252.846V155.335Z" fill="black" stroke="black" stroke-miterlimit="10"/>
<path d="M1927.85 131.552H1937.74V60.0576H1927.85V131.552Z" fill="black" stroke="black" stroke-miterlimit="10"/>
<path d="M252.846 131.34H330.802V115.672L252.846 115.672V131.34Z" fill="black" stroke="black" stroke-miterlimit="10"/>
<path d="M1927.85 107.557L2005.8 107.557V91.8884L1927.85 91.8884V107.557Z" fill="black" stroke="black" stroke-miterlimit="10"/>
<path d="M252.846 194.979H262.744V123.484H252.846V194.979Z" fill="black" stroke="black" stroke-miterlimit="10"/>
<path d="M1927.85 171.195H1937.74V99.7012H1927.85V171.195Z" fill="black" stroke="black" stroke-miterlimit="10"/>
<path d="M993.747 177.686C993.747 134.629 1023.71 99.7353 1060.68 99.7353C1065.26 99.7295 1069.82 100.267 1074.29 101.339V37.9053H1006.23C1007.61 43.9656 1008.31 50.1773 1008.31 56.4111C1008.31 77.0849 1000.54 96.912 986.72 111.531C972.895 126.149 954.145 134.362 934.594 134.362C932.65 134.362 930.53 134.362 928.527 134.074V192.038H994.972C994.186 187.299 993.776 182.498 993.747 177.686V177.686Z" fill="black" stroke="black" stroke-miterlimit="10"/>
<path d="M2202.74 156.686C2202.74 113.629 2232.71 78.7353 2269.67 78.7353C2274.25 78.7295 2278.82 79.2674 2283.28 80.3391V16.9053H2215.22C2216.61 22.9656 2217.3 29.1773 2217.31 35.4111C2217.31 56.0849 2209.54 75.912 2195.71 90.5305C2181.89 105.149 2163.14 113.362 2143.59 113.362C2141.64 113.362 2139.52 113.362 2137.52 113.074V171.038H2203.97C2203.18 166.299 2202.77 161.498 2202.74 156.686V156.686Z" fill="black" stroke="black" stroke-miterlimit="10"/>
<path d="M537.66 143.491C537.66 143.491 544.018 155.191 530.912 160.126C517.806 165.061 472.246 149.598 453.131 160.455C434.017 171.312 422.194 158.913 430.458 153.073C438.723 147.234 501.958 152.333 504.117 149.208C506.275 146.082 433.142 129.653 420.405 132.059C407.669 134.465 462.776 44.2795 479.557 97.2678C496.339 150.256 510.164 140.839 511.836 138.7C513.509 136.562 450.273 63.7517 481.424 66.0135C481.424 66.0135 487.666 58.4056 480.044 50.3247C472.421 42.2438 516.037 45.4309 504.797 73.1691C493.558 100.907 520.353 147.316 524.651 143.532C528.948 139.749 536.26 136.048 537.66 143.491Z" fill="#F6CA6A"/>
<path d="M1422.15 149.429C1422.15 149.429 1428.51 161.129 1415.4 166.063C1402.29 170.998 1356.73 155.536 1337.62 166.392C1318.5 177.249 1306.68 164.85 1314.95 159.011C1323.21 153.171 1386.45 158.27 1388.6 155.145C1390.76 152.02 1317.63 135.591 1304.89 137.996C1292.16 140.402 1347.26 50.217 1364.04 103.205C1380.83 156.194 1394.65 146.776 1396.32 144.638C1398 142.499 1334.76 69.6892 1365.91 71.951C1365.91 71.951 1372.15 64.3431 1364.53 56.2622C1356.91 48.1813 1400.52 51.3684 1389.28 79.1066C1378.05 106.845 1404.84 153.253 1409.14 149.47C1413.44 145.686 1420.75 141.985 1422.15 149.429Z" fill="#F6CA6A"/>
<path d="M832.235 51.8055C832.235 51.8055 826.654 40.4347 839.274 36.3017C851.894 32.1688 894.557 48.7623 913.068 39.2627C931.58 29.763 942.392 42.018 934.322 47.2202C926.252 52.4224 866.419 44.9172 864.319 47.7959C862.219 50.6746 930.958 69.3449 943.15 67.5971C955.342 65.8494 899.632 149.146 885.69 98.1317C871.747 47.1173 858.272 55.4655 856.522 57.4395C854.772 59.4134 912.155 131.154 882.656 127.721C882.656 127.721 876.453 134.691 883.376 142.669C890.298 150.647 849.016 145.815 860.741 119.948C872.467 94.081 848.783 48.9062 844.544 52.3195C840.304 55.7328 833.343 59.0228 832.235 51.8055Z" fill="#F6CA6A"/>
<path d="M2144.9 29.6344C2144.9 29.6344 2149.9 19.3489 2138.59 15.6104C2127.29 11.8719 2089.08 26.8817 2072.5 18.2887C2055.91 9.69572 2046.23 20.781 2053.46 25.4867C2060.69 30.1924 2114.28 23.4036 2116.16 26.0075C2118.04 28.6114 2056.47 45.4998 2045.55 43.9188C2034.63 42.3379 2084.53 117.684 2097.02 71.5391C2109.51 25.3937 2121.58 32.9451 2123.14 34.7307C2124.71 36.5162 2073.31 101.41 2099.74 98.3038C2099.74 98.3038 2105.29 104.609 2099.09 111.826C2092.89 119.042 2129.87 114.671 2119.37 91.2731C2108.86 67.875 2130.08 27.0119 2133.87 30.0994C2137.67 33.1869 2143.91 36.1628 2144.9 29.6344Z" fill="#F6CA6A"/>
<path d="M74.1642 57.4802C74.1642 57.4802 68.3306 45.7599 81.3978 41.483C94.465 37.2061 138.353 54.3342 157.428 44.5467C176.504 34.7592 187.627 47.3843 179.304 52.7715C170.982 58.1588 109.302 50.4275 107.124 53.3678C104.946 56.3082 175.785 75.6365 188.327 73.7448C200.869 71.8531 143.486 157.741 129.136 105.205C114.785 52.6687 100.901 61.2431 99.1707 63.2993C97.4401 65.3555 156.534 139.235 126.102 135.678C126.102 135.678 119.705 142.854 126.841 151.079C133.978 159.303 91.4509 154.327 103.507 127.679C115.563 101.031 91.1593 54.4782 86.823 57.9943C82.4867 61.5104 75.292 64.9031 74.1642 57.4802Z" fill="#F6CA6A"/>
<path d="M1749.16 33.697C1749.16 33.697 1743.33 21.9767 1756.4 17.6998C1769.46 13.4229 1813.35 30.551 1832.43 20.7635C1851.5 10.976 1862.63 23.6011 1854.3 28.9883C1845.98 34.3756 1784.3 26.6443 1782.12 29.5846C1779.95 32.525 1850.78 51.8533 1863.33 49.9616C1875.87 48.0699 1818.49 133.957 1804.14 81.4215C1789.79 28.8855 1775.9 37.4599 1774.17 39.5161C1772.44 41.5723 1831.53 115.452 1801.1 111.894C1801.1 111.894 1794.7 119.071 1801.84 127.295C1808.98 135.52 1766.45 130.544 1778.51 103.896C1790.56 77.2474 1766.16 30.695 1761.82 34.2111C1757.49 37.7272 1750.29 41.1199 1749.16 33.697Z" fill="#F6CA6A"/>
<path d="M1110.3 88.697C1110.3 88.697 1104.46 76.9767 1117.53 72.6998C1130.6 68.4229 1174.49 85.551 1193.56 75.7635C1212.64 65.976 1223.76 78.6011 1215.44 83.9883C1207.12 89.3756 1145.44 81.6443 1143.26 84.5846C1141.08 87.525 1211.92 106.853 1224.46 104.962C1237 103.07 1179.62 188.957 1165.27 136.422C1150.92 83.8855 1137.04 92.4599 1135.3 94.5161C1133.57 96.5723 1192.67 170.452 1162.24 166.894C1162.24 166.894 1155.84 174.071 1162.97 182.295C1170.11 190.52 1127.58 185.544 1139.64 158.896C1151.7 132.247 1127.29 85.695 1122.96 89.2111C1118.62 92.7272 1111.43 96.1199 1110.3 88.697Z" fill="#F6CA6A"/>
<path d="M2319.29 67.697C2319.29 67.697 2313.46 55.9767 2326.53 51.6998C2339.59 47.4229 2383.48 64.551 2402.56 54.7635C2421.63 44.976 2432.76 57.6011 2424.43 62.9883C2416.11 68.3756 2354.43 60.6443 2352.25 63.5846C2350.07 66.525 2420.91 85.8533 2433.46 83.9616C2446 82.0699 2388.61 167.957 2374.26 115.422C2359.91 62.8855 2346.03 71.4599 2344.3 73.5161C2342.57 75.5723 2401.66 149.452 2371.23 145.894C2371.23 145.894 2364.83 153.071 2371.97 161.295C2379.11 169.52 2336.58 164.544 2348.64 137.896C2360.69 111.247 2336.29 64.695 2331.95 68.2111C2327.62 71.7272 2320.42 75.1199 2319.29 67.697Z" fill="#F6CA6A"/>
<path d="M718.053 76.7877C690.032 76.7877 667.34 54.8891 667.378 27.994C667.382 24.6731 667.734 21.3628 668.428 18.1242L627.107 18.0625V67.617C634.579 65.6925 642.366 65.5906 649.88 67.3187C657.393 69.0469 664.437 72.56 670.477 77.592C676.517 82.624 681.396 89.0431 684.743 96.3634C688.091 103.684 689.82 111.713 689.799 119.845C689.799 121.346 689.799 122.805 689.604 124.265H727.347V75.9035C724.277 76.4679 721.169 76.7636 718.053 76.7877V76.7877Z" fill="#F6CA6A"/>
<path d="M1602.54 82.7252C1574.52 82.7252 1551.83 60.8266 1551.87 33.9315C1551.87 30.6106 1552.22 27.3003 1552.92 24.0617L1511.59 24V73.5545C1519.07 71.63 1526.85 71.5281 1534.37 73.2562C1541.88 74.9844 1548.92 78.4975 1554.96 83.5295C1561 88.5615 1565.88 94.9806 1569.23 102.301C1572.58 109.621 1574.31 117.651 1574.29 125.782C1574.29 127.283 1574.29 128.743 1574.09 130.203H1611.83V81.841C1608.76 82.4054 1605.66 82.7011 1602.54 82.7252V82.7252Z" fill="#F6CA6A"/>
<path d="M374.009 188.25V13H463.438V42.9794L375.02 42.8149L374.709 188.25H374.009Z" fill="black" stroke="black" stroke-width="2" stroke-miterlimit="10"/>
</g>
</svg>
