<svg width="2449" height="171" viewBox="0 0 2449 171" fill="none" xmlns="http://www.w3.org/2000/svg">
<mask id="mask0_206_112" style="mask-type:alpha" maskUnits="userSpaceOnUse" x="0" y="0" width="2449" height="171">
<rect width="2449" height="171" fill="#C4C4C4"/>
</mask>
<g mask="url(#mask0_206_112)">
<path d="M282.257 18.9863V64.7354H293.514V18.9863H282.257Z" fill="#F5F5F5" stroke="#F5F5F5" stroke-miterlimit="10"/>
<path d="M1498.26 -6.0137V39.7354H1509.51V-6.0137H1498.26Z" fill="#F5F5F5" stroke="#F5F5F5" stroke-miterlimit="10"/>
<path d="M310.754 19.0054V64.7544H322.011V19.0054H310.754Z" fill="#F5F5F5" stroke="#F5F5F5" stroke-miterlimit="10"/>
<path d="M1526.75 -5.99464V39.7544H1538.01V-5.99464H1526.75Z" fill="#F5F5F5" stroke="#F5F5F5" stroke-miterlimit="10"/>
<path d="M380.547 24.2627V39.2627H387.547V24.2627H380.547Z" fill="#F5F5F5" stroke="#F5F5F5" stroke-miterlimit="10"/>
<path d="M1596.55 -0.565363V14.2627H1603.55V-0.565363H1596.55Z" fill="#F5F5F5" stroke="#F5F5F5" stroke-miterlimit="10"/>
<path d="M481.386 97.4854V157.537H486.986V97.4854H481.386Z" fill="#F5F5F5" stroke="#F5F5F5" stroke-miterlimit="10"/>
<path d="M1697.39 72.4854V132.537H1703.01V72.4854H1697.39Z" fill="#F5F5F5" stroke="#F5F5F5" stroke-miterlimit="10"/>
<path d="M448.069 76.3912V136.443H455.069V76.3912H448.069Z" fill="#F5F5F5" stroke="#F5F5F5" stroke-miterlimit="10"/>
<path d="M1664.07 51.3912V111.443H1669.7V51.3912H1664.07Z" fill="#F5F5F5" stroke="#F5F5F5" stroke-miterlimit="10"/>
<path d="M536.011 25.6411V25.252H399.822V75.5934H423.778L423.64 25.8163L536.011 25.6411Z" fill="#F5F5F5" stroke="#F5F5F5" stroke-miterlimit="10"/>
<path d="M1752.01 0.641143V0.251953H1615.82V50.5934H1639.78L1639.64 0.816277L1752.01 0.641143Z" fill="#F5F5F5" stroke="#F5F5F5" stroke-miterlimit="10"/>
<path d="M579.697 86.0429V131.792H590.954V86.0429H579.697Z" fill="#F5F5F5" stroke="#F5F5F5" stroke-miterlimit="10"/>
<path d="M1795.7 61.0429V106.792H1806.95V61.0429H1795.7Z" fill="#F5F5F5" stroke="#F5F5F5" stroke-miterlimit="10"/>
<path d="M621.249 43.5244V89.2734H632.506V43.5244H621.249Z" fill="#F5F5F5" stroke="#F5F5F5" stroke-miterlimit="10"/>
<path d="M1837.25 18.5244V64.2734H1848.51V18.5244H1837.25Z" fill="#F5F5F5" stroke="#F5F5F5" stroke-miterlimit="10"/>
<path d="M791.899 130.761V168.473H797.528V130.761H791.899Z" fill="#F5F5F5" stroke="#F5F5F5" stroke-miterlimit="10"/>
<path d="M2007.9 105.761V143.473H2013.53V105.761H2007.9Z" fill="#F5F5F5" stroke="#F5F5F5" stroke-miterlimit="10"/>
<path d="M758.563 117.509V155.221H764.192V117.509H758.563Z" fill="#F5F5F5" stroke="#F5F5F5" stroke-miterlimit="10"/>
<path d="M1974.56 92.5089V130.221H1980.19V92.5089H1974.56Z" fill="#F5F5F5" stroke="#F5F5F5" stroke-miterlimit="10"/>
<path d="M846.347 59.2085V58.8193H710.158V109.161H734.114L733.976 59.3837L846.347 59.2085Z" fill="#F5F5F5" stroke="#F5F5F5" stroke-miterlimit="10"/>
<path d="M2062.35 34.2085V33.8193H1926.16V84.1608H1950.11L1949.98 34.3837L2062.35 34.2085Z" fill="#F5F5F5" stroke="#F5F5F5" stroke-miterlimit="10"/>
<path d="M925.008 -0.512272V29.6108H936.265V-0.512272H925.008Z" fill="#F5F5F5" stroke="#F5F5F5" stroke-miterlimit="10"/>
<path d="M2141.01 -22.5123V7.61084L2152.26 7.61084V-22.5123H2141.01Z" fill="#F5F5F5" stroke="#F5F5F5" stroke-miterlimit="10"/>
<path d="M953.506 -0.531374V29.5918H964.763V-0.531374H953.506Z" fill="#F5F5F5" stroke="#F5F5F5" stroke-miterlimit="10"/>
<path d="M2169.51 -22.5314V7.5918L2180.76 7.5918V-22.5314H2169.51Z" fill="#F5F5F5" stroke="#F5F5F5" stroke-miterlimit="10"/>
<path d="M1124.14 62.3414V122.393H1129.77V62.3414H1124.14Z" fill="#F5F5F5" stroke="#F5F5F5" stroke-miterlimit="10"/>
<path d="M2340.14 37.3414V97.3931H2345.77V37.3414H2340.14Z" fill="#F5F5F5" stroke="#F5F5F5" stroke-miterlimit="10"/>
<path d="M1090.8 41.2472V101.299H1096.43V41.2472H1090.8Z" fill="#F5F5F5" stroke="#F5F5F5" stroke-miterlimit="10"/>
<path d="M2306.8 16.2472V76.2988H2313.8V16.2472H2306.8Z" fill="#F5F5F5" stroke="#F5F5F5" stroke-miterlimit="10"/>
<path d="M62 55V70H69V55H62Z" fill="#F5F5F5" stroke="#F5F5F5" stroke-miterlimit="10"/>
<path d="M1280.76 29.7716V44.5996H1287.76V29.7716H1280.76Z" fill="#F5F5F5" stroke="#F5F5F5" stroke-miterlimit="10"/>
<path d="M135 127V153H141V127H135Z" fill="#F5F5F5" stroke="#F5F5F5" stroke-miterlimit="10"/>
<path d="M1351.42 100.156V127.555H1358.42V100.156H1351.42Z" fill="#F5F5F5" stroke="#F5F5F5" stroke-miterlimit="10"/>
<path d="M220.244 55.9785V55.5894H84.0552V105.931H108.011L107.872 56.1537L220.244 55.9785Z" fill="#F5F5F5" stroke="#F5F5F5" stroke-miterlimit="10"/>
<path d="M1436.24 30.9785V30.5894H1300.06V80.9308H1324.01L1323.87 31.1537L1436.24 30.9785Z" fill="#F5F5F5" stroke="#F5F5F5" stroke-miterlimit="10"/>
<path d="M171.866 74.511C181.602 85.5445 201.272 129.892 203.128 131.41C204.985 132.928 226.61 136.1 215.61 110.433C204.609 84.7661 166.593 75.4062 179.054 65.9294C191.516 56.4527 219.342 101.073 224.951 99.4385C230.56 97.8039 245.905 89.7088 260.973 53.1446C276.042 16.5804 238.973 64.1781 237.274 71.1251C235.576 78.0721 225.109 95.4494 220.033 83.9878C214.958 72.5262 249.657 45.9057 246.339 40.1068C243.021 34.3079 171.826 47.4819 168.192 51.7825C164.558 56.083 168.192 34.269 179.054 32.109C189.916 29.949 201.924 39.7566 206.94 37.9468C211.956 36.1371 239.96 13.7588 218.947 -0.602244C197.934 -14.9633 212.825 10.1199 209.606 13.9145C206.387 17.7091 171.036 19.5772 150.655 40.1652C130.274 60.7532 182.728 69.3543 167.639 70.4829C152.551 71.6116 148.601 53.0862 142.716 59.3327C136.831 65.5792 119.175 70.3273 183.478 121.739C183.478 121.739 190.449 118.411 181.76 108.37C173.07 98.3293 157.192 94.5931 158.456 90.3705C159.72 86.1478 165.526 67.3305 171.866 74.511Z" fill="#90BE80"/>
<path d="M1366.71 44.6194C1376.45 55.6529 1396.12 100.001 1397.97 101.519C1399.83 103.037 1421.45 106.208 1410.45 80.5415C1399.45 54.8745 1361.44 45.5146 1373.9 36.0378C1386.36 26.5611 1414.19 71.1815 1419.79 69.5469C1425.4 67.9123 1440.75 59.8172 1455.82 23.253C1470.88 -13.3112 1433.82 34.2865 1432.12 41.2335C1430.42 48.1805 1419.95 65.5578 1414.88 54.0962C1409.8 42.6346 1444.5 16.0141 1441.18 10.2152C1437.86 4.41632 1366.67 17.5903 1363.04 21.8909C1359.4 26.1914 1363.04 4.3774 1373.9 2.21741C1384.76 0.0574137 1396.77 9.86495 1401.78 8.05523C1406.8 6.2455 1434.8 -16.1328 1413.79 -30.4938C1392.78 -44.8549 1407.67 -19.7717 1404.45 -15.9771C1401.23 -12.1825 1365.88 -10.3144 1345.5 10.2736C1325.12 30.8616 1377.57 39.4627 1362.48 40.5913C1347.39 41.72 1343.44 23.1946 1337.56 29.4411C1331.67 35.6876 1314.02 40.4357 1378.32 91.8474C1378.32 91.8474 1385.29 88.5198 1376.6 78.4788C1367.91 68.4377 1352.04 64.7015 1353.3 60.4788C1354.56 56.2562 1360.37 37.4389 1366.71 44.6194Z" fill="#90BE80"/>
<path d="M871.702 68.5124C861.946 79.5459 842.296 123.894 840.42 125.431C838.544 126.968 816.958 130.101 827.939 104.454C838.919 78.8064 876.956 69.427 864.435 59.9308C851.914 50.4346 824.226 95.0745 818.617 93.4399C813.008 91.8053 797.663 83.7102 782.595 47.146C767.526 10.5818 804.595 58.1795 806.294 65.1265C807.992 72.0735 818.439 89.4507 823.515 78.0086C828.59 66.5665 793.931 39.9071 797.11 34.1082C800.29 28.3093 871.643 41.4833 875.277 45.7838C878.911 50.0843 875.277 28.2704 864.415 26.1104C853.553 23.9504 841.605 33.7385 836.608 32.026C831.612 30.3136 803.628 7.76016 824.641 -6.60088C845.654 -20.9619 830.684 4.10179 833.942 7.99367C837.201 11.8856 872.512 13.6564 892.913 34.2444C913.314 54.8324 860.84 63.453 875.929 64.4259C891.017 65.3989 894.967 47.0292 900.852 53.2757C906.737 59.5222 924.373 64.4259 860.07 115.74C860.07 115.74 853.119 112.413 861.788 102.372C870.458 92.3307 886.376 88.5945 885.112 84.3718C883.848 80.1491 878.081 61.3319 871.702 68.5124Z" fill="#90BE80"/>
<path d="M2098.7 28.5124C2088.95 39.5459 2069.3 83.8938 2067.42 85.4311C2065.54 86.9684 2043.96 90.1014 2054.94 64.4539C2065.92 38.8064 2103.96 29.427 2091.43 19.9308C2078.91 10.4346 2051.23 55.0745 2045.62 53.4399C2040.01 51.8053 2024.66 43.7102 2009.59 7.14598C1994.53 -29.4182 2031.6 18.1795 2033.29 25.1265C2034.99 32.0735 2045.44 49.4507 2050.51 38.0086C2055.59 26.5665 2020.93 -0.0929157 2024.11 -5.89182C2027.29 -11.6907 2098.64 1.4833 2102.28 5.78382C2105.91 10.0843 2102.28 -11.7296 2091.42 -13.8896C2080.55 -16.0496 2068.6 -6.26154 2063.61 -7.97397C2058.61 -9.6864 2030.63 -32.2398 2051.64 -46.6009C2072.65 -60.9619 2057.68 -35.8982 2060.94 -32.0063C2064.2 -28.1144 2099.51 -26.3436 2119.91 -5.7556C2140.31 14.8324 2087.84 23.453 2102.93 24.4259C2118.02 25.3989 2121.97 7.02923 2127.85 13.2757C2133.74 19.5222 2151.37 24.4259 2087.07 75.7404C2087.07 75.7404 2080.12 72.4128 2088.79 62.3718C2097.46 52.3307 2113.38 48.5945 2112.11 44.3718C2110.85 40.1491 2105.08 21.3319 2098.7 28.5124Z" fill="#90BE80"/>
<path d="M981.984 139.771C969.286 132.201 921.572 120.759 919.716 119.202C917.859 117.645 910.987 97.2325 938.517 103.498C966.047 109.764 982.024 145.025 989.331 131.228C996.638 117.431 947.266 98.2638 947.858 92.5428C948.451 86.8217 954.118 70.5147 988.008 49.5959C1021.9 28.677 980.78 72.9472 974.183 75.6715C967.587 78.3958 951.966 91.6476 964.309 94.6055C976.652 97.5633 997.31 59.3645 1003.65 61.5245C1009.99 63.6845 1009.12 135.12 1005.47 139.362C1001.81 143.604 1022.94 136.268 1023.24 125.429C1023.54 114.59 1011.65 104.549 1012.52 99.3925C1013.39 94.2357 1031.08 63.198 1049.05 81.1201C1067.02 99.0422 1039.39 88.9039 1036.16 92.679C1032.92 96.4541 1037.14 131.092 1020.06 154.424C1002.98 177.755 985.263 128.329 986.823 143.157C988.383 157.985 1007.5 158.724 1002.27 165.438C997.033 172.151 995.256 190.19 932.77 136.677C932.77 136.677 934.903 129.36 946.436 136.035C957.97 142.709 964.447 157.44 968.456 155.494C972.465 153.548 990.259 144.694 981.984 139.771Z" fill="#90BE80"/>
<path d="M2180.39 116.771C2167.7 109.201 2119.98 97.7589 2118.13 96.2021C2116.27 94.6454 2109.4 74.2325 2136.93 80.4984C2164.46 86.7643 2180.43 122.025 2187.74 108.228C2195.05 94.4313 2145.68 75.2638 2146.27 69.5428C2146.86 63.8217 2152.53 47.5147 2186.42 26.5959C2220.31 5.67702 2179.19 49.9472 2172.59 52.6715C2166 55.3958 2150.38 68.6476 2162.72 71.6055C2175.06 74.5633 2195.72 36.3645 2202.06 38.5245C2208.4 40.6845 2207.53 112.12 2203.88 116.362C2200.22 120.604 2221.35 113.268 2221.65 102.429C2221.95 91.5903 2210.06 81.5492 2210.93 76.3925C2211.8 71.2357 2229.49 40.198 2247.46 58.1201C2265.43 76.0422 2237.81 65.9039 2234.57 69.679C2231.33 73.4541 2235.55 108.092 2218.47 131.424C2201.39 154.755 2183.67 105.329 2185.23 120.157C2186.79 134.985 2205.91 135.724 2200.68 142.438C2195.44 149.151 2193.67 167.19 2131.18 113.677C2131.18 113.677 2133.31 106.36 2144.85 113.035C2156.38 119.709 2162.86 134.44 2166.87 132.494C2170.88 130.548 2188.67 121.694 2180.39 116.771Z" fill="#90BE80"/>
<path d="M649.647 216.071C636.949 208.502 589.235 197.059 587.379 195.503C585.522 193.946 578.65 173.533 606.2 179.779C633.749 186.026 649.647 221.325 656.974 207.529C664.301 193.732 614.929 174.448 615.6 168.843C616.272 163.239 621.801 146.796 655.671 125.896C689.54 104.997 648.443 149.248 641.846 151.952C635.25 154.657 619.609 167.948 631.972 170.906C644.335 173.864 664.973 135.665 671.312 137.825C677.651 139.985 676.782 211.44 673.129 215.663C669.475 219.885 690.627 212.569 690.903 201.73C691.18 190.891 679.271 180.869 680.179 175.712C681.088 170.556 698.763 139.518 716.735 157.44C734.706 175.362 707.058 165.224 703.819 168.999C700.58 172.774 704.806 207.392 687.723 230.744C670.641 254.095 652.926 204.649 654.506 219.477C656.085 234.305 675.163 235.044 669.93 241.738C664.696 248.432 662.978 266.491 600.532 212.919C600.532 212.919 602.645 205.583 614.178 212.277C625.712 218.971 632.189 233.682 636.198 231.736C640.207 229.79 658.021 220.994 649.647 216.071Z" fill="#90BE80"/>
<path d="M1865.65 191.071C1852.95 183.502 1805.24 172.059 1803.38 170.503C1801.52 168.946 1794.65 148.533 1822.2 154.779C1849.75 161.026 1865.65 196.325 1872.97 182.529C1880.3 168.732 1830.93 149.448 1831.6 143.843C1832.27 138.239 1837.8 121.796 1871.67 100.896C1905.54 79.9969 1864.44 124.248 1857.85 126.952C1851.25 129.657 1835.61 142.948 1847.97 145.906C1860.33 148.864 1880.97 110.665 1887.31 112.825C1893.65 114.985 1892.78 186.44 1889.13 190.663C1885.48 194.885 1906.63 187.569 1906.9 176.73C1907.18 165.891 1895.27 155.869 1896.18 150.712C1897.09 145.556 1914.76 114.518 1932.73 132.44C1950.71 150.362 1923.06 140.224 1919.82 143.999C1916.58 147.774 1920.81 182.392 1903.72 205.744C1886.64 229.095 1868.93 179.649 1870.51 194.477C1872.09 209.305 1891.16 210.044 1885.93 216.738C1880.7 223.432 1878.98 241.491 1816.53 187.919C1816.53 187.919 1818.64 180.583 1830.18 187.277C1841.71 193.971 1848.19 208.682 1852.2 206.736C1856.21 204.79 1874.02 195.994 1865.65 191.071Z" fill="#90BE80"/>
<path d="M565.702 50.5115C555.966 61.5449 536.296 105.893 534.44 107.43C532.583 108.967 510.978 112.1 521.958 86.453C532.939 60.8055 570.975 51.426 558.435 41.9299C545.894 32.4337 518.147 77.0735 512.637 75.4973C507.127 73.9211 491.663 65.7676 476.595 29.2034C461.526 -7.36081 498.595 40.2369 500.294 47.1839C501.992 54.1309 512.439 71.5082 517.515 60.066C522.59 48.6239 487.891 21.9645 491.209 16.1656C494.527 10.3667 565.742 23.5407 569.376 27.8413C573.009 32.1418 569.376 10.3278 558.514 8.1678C547.652 6.0078 535.625 15.8153 530.628 14.1029C525.632 12.3905 497.608 -10.2408 518.64 -24.6018C539.673 -38.9629 524.763 -13.8797 528.021 -10.124C531.28 -6.36838 566.591 -4.46136 586.992 16.1267C607.392 36.7147 554.919 45.4131 569.988 46.4444C585.056 47.4758 589.026 29.0477 594.931 35.2942C600.836 41.5407 618.393 46.3082 554.09 97.7394C554.09 97.7394 547.138 94.4119 555.808 84.3708C564.478 74.3298 580.376 70.5936 579.132 66.3709C577.887 62.1482 572.062 43.3309 565.702 50.5115Z" fill="#90BE80"/>
<path d="M1751.26 36.0964C1741.52 47.1299 1721.85 91.4779 1720 93.0152C1718.14 94.5525 1696.54 97.6854 1707.52 72.0379C1718.5 46.3904 1756.53 37.011 1743.99 27.5148C1731.45 18.0186 1703.71 62.6585 1698.2 61.0823C1692.69 59.5061 1677.22 51.3526 1662.15 14.7884C1647.08 -21.7758 1684.15 25.8219 1685.85 32.7689C1687.55 39.7159 1698 57.0931 1703.07 45.651C1708.15 34.2089 1673.45 7.54947 1676.77 1.75057C1680.09 -4.04833 1751.3 9.12568 1754.93 13.4262C1758.57 17.7267 1754.93 -4.08725 1744.07 -6.24724C1733.21 -8.40724 1721.18 1.4003 1716.19 -0.312124C1711.19 -2.02455 1683.17 -24.6558 1704.2 -39.0169C1725.23 -53.3779 1710.32 -28.2947 1713.58 -24.5391C1716.84 -20.7834 1752.15 -18.8764 1772.55 1.71165C1792.95 22.2997 1740.48 30.9981 1755.55 32.0294C1770.61 33.0608 1774.58 14.6327 1780.49 20.8792C1786.39 27.1256 1803.95 31.8932 1739.65 83.3244C1739.65 83.3244 1732.7 79.9968 1741.37 69.9558C1750.04 59.9147 1765.93 56.1785 1764.69 51.9558C1763.45 47.7331 1757.62 28.9159 1751.26 36.0964Z" fill="#90BE80"/>
<path d="M168.759 162.791V222.843H174.388V162.791H168.759Z" fill="#F5F5F5" stroke="#F5F5F5" stroke-miterlimit="10"/>
<path d="M1384.76 137.791V197.843H1390.39V137.791H1384.76Z" fill="#F5F5F5" stroke="#F5F5F5" stroke-miterlimit="10"/>
<path d="M41.3781 224.945C28.6598 217.394 -19.0341 205.933 -20.8905 204.376C-22.7469 202.819 -29.5603 182.406 -2.06969 188.672C25.4209 194.938 41.3781 230.199 48.7248 216.402C56.0714 202.605 6.71861 183.379 7.39008 177.717C8.06155 172.054 13.5715 155.669 47.4608 134.731C81.3501 113.793 40.2129 158.082 33.4785 160.845C26.7441 163.609 11.2609 176.821 23.604 179.779C35.9471 182.737 56.6638 144.461 63.102 146.698C69.5402 148.936 68.5725 220.294 64.8992 224.536C61.2259 228.778 82.3968 221.442 82.6733 210.603C82.9498 199.764 71.0016 189.743 71.8903 184.586C72.779 179.429 90.4544 148.352 108.525 166.313C126.595 184.274 98.8675 174.097 95.6286 177.872C92.3898 181.647 96.5963 216.285 79.5332 239.617C62.4701 262.949 44.7157 213.522 46.2956 228.35C47.8755 243.178 66.9728 243.917 61.7393 250.631C56.5059 257.344 54.7877 275.364 -7.67841 221.792C-7.67841 221.792 -5.54552 214.475 5.9879 221.15C17.5213 227.825 23.999 242.555 28.008 240.609C32.0171 238.663 49.7122 229.868 41.3781 224.945Z" fill="#90BE80"/>
<path d="M1257.38 199.945C1244.66 192.394 1196.97 180.933 1195.11 179.376C1193.25 177.819 1186.44 157.406 1213.93 163.672C1241.42 169.938 1257.38 205.199 1264.72 191.402C1272.07 177.605 1222.72 158.379 1223.39 152.717C1224.06 147.054 1229.57 130.669 1263.46 109.731C1297.35 88.7925 1256.21 133.082 1249.48 135.845C1242.74 138.609 1227.26 151.821 1239.6 154.779C1251.95 157.737 1272.66 119.461 1279.1 121.698C1285.54 123.936 1284.57 195.294 1280.9 199.536C1277.23 203.778 1298.4 196.442 1298.67 185.603C1298.95 174.764 1287 164.743 1287.89 159.586C1288.78 154.429 1306.45 123.352 1324.52 141.313C1342.6 159.274 1314.87 149.097 1311.63 152.872C1308.39 156.647 1312.6 191.285 1295.53 214.617C1278.47 237.949 1260.72 188.522 1262.3 203.35C1263.88 218.178 1282.97 218.917 1277.74 225.631C1272.51 232.344 1270.79 250.364 1208.32 196.792C1208.32 196.792 1210.45 189.475 1221.99 196.15C1233.52 202.825 1240 217.555 1244.01 215.609C1248.02 213.663 1265.71 204.868 1257.38 199.945Z" fill="#90BE80"/>
<path d="M339.233 191.435C326.515 183.866 278.821 172.423 276.964 170.867C275.108 169.31 268.235 148.897 295.765 155.163C323.295 161.429 339.213 196.689 346.56 182.893C353.906 169.096 304.514 149.928 305.186 144.207C305.857 138.486 311.367 122.16 345.256 101.26C379.146 80.3611 338.028 124.612 331.432 127.336C324.836 130.06 309.214 143.312 321.558 146.27C333.901 149.228 354.558 111.029 360.898 113.189C367.237 115.349 366.368 186.785 362.695 191.027C359.021 195.269 380.192 187.933 380.469 177.094C380.745 166.255 368.876 156.214 369.745 151.057C370.614 145.9 388.309 114.863 406.281 132.785C424.252 150.707 396.624 140.568 393.385 144.344C390.146 148.119 394.352 182.756 377.289 206.088C360.226 229.42 342.491 179.993 344.052 194.821C345.612 209.649 364.729 210.389 359.495 217.102C354.262 223.816 352.544 241.835 290.078 188.263C290.078 188.263 292.211 180.947 303.744 187.621C315.277 194.296 321.755 209.027 325.764 207.081C329.773 205.135 347.488 196.359 339.233 191.435Z" fill="#90BE80"/>
<path d="M1555.23 166.435C1542.51 158.866 1494.82 147.423 1492.96 145.867C1491.11 144.31 1484.24 123.897 1511.77 130.163C1539.3 136.429 1555.21 171.689 1562.56 157.893C1569.91 144.096 1520.51 124.928 1521.19 119.207C1521.86 113.486 1527.37 97.1599 1561.26 76.2605C1595.15 55.3611 1554.03 99.6117 1547.43 102.336C1540.84 105.06 1525.21 118.312 1537.56 121.27C1549.9 124.228 1570.56 86.0291 1576.9 88.1891C1583.24 90.3491 1582.37 161.785 1578.69 166.027C1575.02 170.269 1596.19 162.933 1596.47 152.094C1596.75 141.255 1584.88 131.214 1585.75 126.057C1586.61 120.9 1604.31 89.8626 1622.28 107.785C1640.25 125.707 1612.62 115.568 1609.38 119.344C1606.15 123.119 1610.35 157.756 1593.29 181.088C1576.23 204.42 1558.49 154.993 1560.05 169.821C1561.61 184.649 1580.73 185.389 1575.5 192.102C1570.26 198.816 1568.54 216.835 1506.08 163.263C1506.08 163.263 1508.21 155.947 1519.74 162.621C1531.28 169.296 1537.76 184.027 1541.76 182.081C1545.77 180.135 1563.49 171.359 1555.23 166.435Z" fill="#90BE80"/>
<path d="M1178.01 42.4738C1168.28 53.5073 1148.63 97.8358 1146.75 99.3731C1144.87 100.91 1123.29 104.063 1134.27 78.4153C1145.25 52.7678 1183.29 43.3884 1170.74 33.8922C1158.2 24.396 1130.56 68.9191 1124.95 67.3818C1119.34 65.8445 1103.97 57.6521 1088.92 21.1074C1073.88 -15.4374 1110.92 32.1214 1112.62 39.0684C1114.32 46.0154 1124.77 63.3927 1129.84 51.9505C1134.92 40.5084 1100.22 13.849 1103.54 8.06959C1106.86 2.29014 1178.07 15.4252 1181.71 19.7452C1185.34 24.0652 1181.71 2.23177 1170.84 0.0717718C1159.98 -2.08822 1147.95 7.69986 1142.96 5.90959C1137.96 4.11933 1109.94 -18.2979 1130.95 -32.62C1151.96 -46.9421 1137.07 -21.8784 1140.27 -18.1033C1143.47 -14.3282 1178.92 -12.4795 1199.24 8.10851C1219.56 28.6965 1167.17 37.4338 1182.26 38.4262C1197.35 39.4187 1201.3 21.0295 1207.18 27.276C1213.07 33.5225 1230.7 38.29 1166.4 89.6823C1166.4 89.6823 1159.45 86.3742 1168.12 76.3137C1176.79 66.2532 1192.75 62.5364 1191.44 58.3138C1190.14 54.0911 1184.37 35.2738 1178.01 42.4738Z" fill="#90BE80"/>
<path d="M2412.68 28.4738C2402.94 39.5073 2383.29 83.8358 2381.41 85.3731C2379.54 86.9104 2357.95 90.0628 2368.93 64.4153C2379.91 38.7678 2417.95 29.3884 2405.41 19.8922C2392.87 10.396 2365.22 54.9191 2359.61 53.3818C2354 51.8445 2338.64 43.6521 2323.59 7.10738C2308.54 -29.4374 2345.59 18.1214 2347.29 25.0684C2348.99 32.0154 2359.43 49.3927 2364.51 37.9505C2369.58 26.5084 2334.88 -0.150972 2338.2 -5.93041C2341.52 -11.7099 2412.74 1.42524 2416.37 5.74523C2420 10.0652 2416.37 -11.7682 2405.51 -13.9282C2394.64 -16.0882 2382.62 -6.30014 2377.62 -8.09041C2372.62 -9.88067 2344.6 -32.2979 2365.61 -46.62C2386.63 -60.9421 2371.74 -35.8784 2374.94 -32.1033C2378.13 -28.3282 2413.58 -26.4795 2433.91 -5.89149C2454.23 14.6965 2401.83 23.4338 2416.92 24.4262C2432.01 25.4187 2435.96 7.02954 2441.85 13.276C2447.73 19.5225 2465.37 24.29 2401.06 75.6823C2401.06 75.6823 2394.11 72.3742 2402.78 62.3137C2411.45 52.2532 2427.41 48.5364 2426.11 44.3138C2424.8 40.0911 2419.04 21.2738 2412.68 28.4738Z" fill="#90BE80"/>
</g>
</svg>
