<svg width="2449" height="171" viewBox="0 0 2449 171" fill="none" xmlns="http://www.w3.org/2000/svg">
<mask id="mask0_204_30" style="mask-type:alpha" maskUnits="userSpaceOnUse" x="0" y="0" width="2449" height="171">
<rect width="2449" height="171" fill="#C4C4C4"/>
</mask>
<g mask="url(#mask0_204_30)">
<path d="M153.308 134.483C153.308 134.483 163.868 34.7838 152.905 32.3692C141.941 29.9546 138.797 131.243 132.61 134.483C126.424 137.724 102.058 104.838 100.91 78.6828C99.761 52.5273 83.7796 57.4188 81.3411 62.2791C78.9026 67.1395 74.0255 133.315 63.0824 134.717C52.1393 136.119 57.0365 102.844 52.1191 102.844C47.2018 102.844 18 184.801 18 104.402C18 24.0038 47.2421 66.3294 55.7668 58.2288C64.2916 50.1282 94.7429 37.1361 106.956 54.1629C119.168 71.1898 112.719 103.623 117.032 104.465C121.345 105.306 146.012 24.2998 152.381 24.2998C158.749 24.2998 184.384 107.861 184.626 111.677C184.867 115.494 164.855 150.981 153.308 134.483Z" fill="#7C9ECF"/>
<path d="M1173.76 58.8366L1104.47 58.7275V85.3972H1173.76V58.8366Z" fill="#F5F5F5" stroke="#F5F5F5" stroke-width="3" stroke-miterlimit="10"/>
<path d="M2402.76 20.8366L2333.47 20.7275V47.3972H2402.76V20.8366Z" fill="#F5F5F5" stroke="#F5F5F5" stroke-width="3" stroke-miterlimit="10"/>
<path d="M691.395 83.1226H611.951V124.28H691.395V83.1226Z" fill="#F5F5F5" stroke="#F5F5F5" stroke-width="3" stroke-miterlimit="10"/>
<path d="M1920.39 45.1226H1840.95V86.2798H1920.39V45.1226Z" fill="#F5F5F5" stroke="#F5F5F5" stroke-width="3" stroke-miterlimit="10"/>
<path d="M622.35 18.2715H550.403V55.5342H622.35V18.2715Z" fill="#F5F5F5" stroke="#F5F5F5" stroke-width="3" stroke-miterlimit="10"/>
<path d="M1851.35 -19.7285H1779.4V17.5342H1851.35V-19.7285Z" fill="#F5F5F5" stroke="#F5F5F5" stroke-width="3" stroke-miterlimit="10"/>
<path d="M691.357 11.5566H690.45V91.1917H691.357V11.5566Z" fill="#F5F5F5" stroke="#F5F5F5" stroke-width="3" stroke-miterlimit="10"/>
<path d="M1920.36 -26.4434H1919.45V53.1917H1920.36V-26.4434Z" fill="#F5F5F5" stroke="#F5F5F5" stroke-width="3" stroke-miterlimit="10"/>
<path d="M240.711 143.503H241.598V105.025H159.938V129.265L240.691 129.125L240.711 143.503Z" fill="#F5F5F5" stroke="#F5F5F5" stroke-width="3" stroke-miterlimit="10"/>
<path d="M903.485 26.8742C903.485 26.8742 908.402 11.67 878.112 20.5339C847.822 29.3979 787.201 28.7592 784.743 31.2984C782.284 33.8376 784.743 38.8226 795.383 40.7543C806.024 42.6859 871.22 30.6597 862.211 56.6127C853.203 82.5658 793.691 48.3875 788.834 57.8901C783.977 67.3927 788.028 76.8798 795.383 80.0421C802.739 83.2045 801.953 69.2777 805.218 68.6546C808.483 68.0314 904.915 88.4231 903.787 84.4663C902.255 79.1386 858.866 39.5548 918.237 51.1916C918.237 51.1916 907.495 40.7543 878.112 40.7543C848.729 40.7543 795.907 37.5608 798.447 36.2366C800.986 34.9125 898.023 41.5799 903.485 26.8742Z" fill="#E84648"/>
<path d="M2132.48 -11.1258C2132.48 -11.1258 2137.4 -26.33 2107.11 -17.4661C2076.82 -8.60214 2016.2 -9.24084 2013.74 -6.70161C2011.28 -4.16239 2013.74 0.822589 2024.38 2.75427C2035.02 4.68595 2100.22 -7.34031 2091.21 18.6127C2082.2 44.5658 2022.69 10.3875 2017.83 19.8901C2012.98 29.3927 2017.03 38.8798 2024.38 42.0421C2031.74 45.2045 2030.95 31.2777 2034.22 30.6546C2037.48 30.0314 2133.92 50.4231 2132.79 46.4663C2131.26 41.1386 2087.87 1.55476 2147.24 13.1916C2147.24 13.1916 2136.5 2.75427 2107.11 2.75427C2077.73 2.75427 2024.91 -0.439234 2027.45 -1.76337C2029.99 -3.0875 2127.02 3.5799 2132.48 -11.1258Z" fill="#E84648"/>
<path d="M1264.17 179.759C1264.17 179.759 1279.46 184.411 1270.07 154.28C1260.68 124.148 1260.27 63.5257 1257.68 61.1115C1255.1 58.6973 1250.16 61.2421 1248.42 71.9149C1246.67 82.5877 1259.83 147.564 1233.72 139.008C1207.61 130.452 1240.75 70.3549 1231.17 65.6638C1221.58 60.9726 1212.17 65.1876 1209.13 72.5973C1206.1 80.0069 1220.01 78.9792 1220.69 82.2327C1221.37 85.4862 1202.66 182.258 1206.59 181.061C1211.89 179.437 1250.72 135.367 1240.11 194.931C1240.11 194.931 1250.36 184.01 1249.85 154.631C1249.34 125.252 1251.62 72.3833 1252.99 74.8992C1254.35 77.4152 1249.37 174.553 1264.17 179.759Z" fill="#E84648"/>
<path d="M792.321 204.195C806.891 172.759 824.344 128.953 828.596 129.67C835.207 130.791 825.211 173.553 844.175 196.017C847.036 199.497 851.052 202.321 855.803 204.195H893.429C906.488 200.862 918.177 195.191 923.779 190.674C937.06 179.971 1030.59 233.077 1030.59 127.131C1030.59 21.1842 985.166 129.265 977.568 129.265C969.97 129.265 929.442 87.9362 912.393 89.79C895.343 91.6438 901.813 179.862 888.894 188.368C882.627 192.434 855.541 198.244 853.647 163.755C851.752 129.265 813.844 85.8643 804.352 90.1639C797.339 93.2795 792.744 167.306 783.917 204.273L792.321 204.195Z" fill="#7C9ECF"/>
<path d="M2021.32 166.195C2035.89 134.759 2053.34 90.9533 2057.6 91.6698C2064.21 92.7915 2054.21 135.553 2073.17 158.017C2076.04 161.497 2080.05 164.321 2084.8 166.195H2122.43C2135.49 162.862 2147.18 157.191 2152.78 152.674C2166.06 141.971 2259.59 195.077 2259.59 89.1306C2259.59 -16.8158 2214.17 91.2648 2206.57 91.2648C2198.97 91.2648 2158.44 49.9362 2141.39 51.79C2124.34 53.6438 2130.81 141.862 2117.89 150.368C2111.63 154.434 2084.54 160.244 2082.65 125.755C2080.75 91.2648 2042.84 47.8643 2033.35 52.1639C2026.34 55.2795 2021.74 129.306 2012.92 166.273L2021.32 166.195Z" fill="#7C9ECF"/>
<path d="M765.598 204.196C762.596 166.45 772.128 90.0863 772.128 90.0863C763.301 79.5088 751.37 85.1948 741.516 94.3702V171.513C745.869 182.667 750.544 194.117 754.998 204.227L765.598 204.196Z" fill="#7C9ECF"/>
<path d="M1994.6 166.196C1991.6 128.45 2001.13 52.0863 2001.13 52.0863C1992.3 41.5088 1980.37 47.1948 1970.52 56.3702V133.513C1974.87 144.667 1979.54 156.117 1984 166.227L1994.6 166.196Z" fill="#7C9ECF"/>
<path d="M345.83 31.9019C345.83 31.9019 329.365 187.418 346.455 191.203C363.545 194.989 368.623 36.9803 378.136 31.9019C387.648 26.8234 425.637 78.1531 427.551 118.952C429.466 159.751 454.153 152.149 457.942 144.547C461.731 136.945 469.349 33.7401 486.438 31.5592C503.528 29.3782 495.951 81.2687 503.548 81.2687C511.146 81.2687 556.752 -46.5804 556.752 78.7295C556.752 204.039 511.146 138.222 497.926 150.872C484.705 163.521 437.124 183.788 418.119 157.212C399.115 130.636 409.131 80.0537 402.501 78.7295C395.87 77.4054 357.136 203.806 347.201 203.806C337.265 203.806 297.262 73.433 296.818 67.4822C296.375 61.5314 327.672 6.24482 345.83 31.9019Z" fill="#7C9ECF"/>
<path d="M1575.02 8.21487C1575.02 8.21487 1558.55 163.731 1575.64 167.516C1592.73 171.302 1597.81 13.2933 1607.32 8.21487C1616.83 3.13642 1654.82 54.4661 1656.74 95.2651C1658.65 136.064 1683.34 128.462 1687.13 120.86C1690.92 113.258 1698.54 10.0531 1715.62 7.87215C1732.71 5.69122 1725.14 57.5817 1732.73 57.5817C1740.33 57.5817 1785.94 -70.2674 1785.94 55.0425C1785.94 180.352 1740.33 114.535 1727.11 127.184C1713.89 139.834 1666.31 160.101 1647.31 133.525C1628.3 106.949 1638.32 56.3666 1631.69 55.0425C1625.06 53.7184 1586.32 180.119 1576.39 180.119C1566.45 180.119 1526.45 49.746 1526 43.7952C1525.56 37.8443 1556.86 -17.4422 1575.02 8.21487Z" fill="#7C9ECF"/>
<path d="M1153.76 131.723C1153.76 131.723 1166.74 -24.3519 1153.46 -28.1663C1140.18 -31.9808 1136.06 126.606 1128.66 131.695C1121.26 136.784 1091.8 85.2311 1090.35 44.28C1088.91 3.32892 1069.72 10.9374 1066.77 18.5642C1063.81 26.191 1057.78 129.77 1044.49 131.944C1031.21 134.118 1037.16 82.0423 1031.25 82.0356C1025.35 82.029 989.761 210.31 989.903 84.5375C990.045 -41.2346 1025.41 24.8655 1035.7 12.1811C1045.99 -0.503356 1082.99 -20.8034 1097.73 5.88748C1112.47 32.5784 1104.63 83.3381 1109.78 84.6729C1114.93 86.0078 1145.17 -40.8248 1152.89 -40.8161C1160.61 -40.8074 1191.56 90.0814 1191.89 96.0545C1192.23 102.028 1167.85 157.491 1153.76 131.723Z" fill="#7C9ECF"/>
<path d="M2382.76 93.723C2382.76 93.723 2395.74 -62.3519 2382.46 -66.1663C2369.18 -69.9808 2365.06 88.6058 2357.66 93.6947C2350.26 98.7835 2320.8 47.2311 2319.35 6.28002C2317.91 -34.6711 2298.72 -27.0626 2295.77 -19.4358C2292.81 -11.809 2286.78 91.7696 2273.49 93.9436C2260.21 96.1176 2266.16 44.0423 2260.25 44.0356C2254.35 44.029 2218.76 172.31 2218.9 46.5375C2219.04 -79.2346 2254.41 -13.1345 2264.7 -25.8189C2274.99 -38.5034 2311.99 -58.8034 2326.73 -32.1125C2341.47 -5.42165 2333.63 45.3381 2338.78 46.6729C2343.93 48.0078 2374.17 -78.8248 2381.89 -78.8161C2389.61 -78.8074 2420.56 52.0814 2420.89 58.0545C2421.23 64.0277 2396.85 119.491 2382.76 93.723Z" fill="#7C9ECF"/>
<path d="M1445.97 130.767C1445.97 130.767 1458.46 12.4426 1445.49 9.57688C1432.53 6.71121 1428.82 126.921 1421.5 130.767C1414.19 134.613 1385.38 95.5839 1384.02 64.5423C1382.66 33.5006 1363.77 39.3059 1360.89 45.0742C1358 50.8425 1352.24 129.38 1339.3 131.044C1326.36 132.708 1332.15 93.2175 1326.34 93.2175C1320.52 93.2175 1286 190.484 1286 95.0663C1286 -0.35128 1320.57 49.8811 1330.65 40.2673C1340.73 30.6534 1376.73 15.2343 1391.17 35.4419C1405.61 55.6495 1397.98 94.1419 1403.08 95.1402C1408.18 96.1386 1437.35 0 1444.88 0C1452.4 0 1482.71 99.1706 1483 103.7C1483.28 108.23 1459.62 150.346 1445.97 130.767Z" fill="#7C9ECF"/>
<path d="M1549.95 142H1551V96H1454V124.978L1549.92 124.811L1549.95 142Z" fill="#F5F5F5" stroke="#F5F5F5" stroke-width="3" stroke-miterlimit="10"/>
</g>
</svg>
