<svg width="1139" height="171" viewBox="0 0 1139 171" fill="none" xmlns="http://www.w3.org/2000/svg">
<g clip-path="url(#clip0_76_2)">
<path d="M135.308 131.84C135.308 131.84 145.868 32.1407 134.905 29.7261C123.941 27.3115 120.797 128.6 114.61 131.84C108.424 135.08 84.0584 102.195 82.9097 76.0396C81.761 49.8841 65.7796 54.7756 63.3411 59.6359C60.9026 64.4963 56.0255 130.672 45.0824 132.074C34.1393 133.476 39.0365 100.201 34.1191 100.201C29.2018 100.201 0 182.157 0 101.759C0 21.3606 29.2421 63.6862 37.7668 55.5856C46.2916 47.485 76.7429 34.4929 88.9556 51.5198C101.168 68.5466 94.7194 100.98 99.0322 101.821C103.345 102.663 128.012 21.6566 134.381 21.6566C140.749 21.6566 166.384 105.217 166.626 109.034C166.867 112.851 146.855 148.337 135.308 131.84Z" fill="#7C9ECF"/>
<path d="M1155.76 56.1932L1086.47 56.0841V82.7537H1155.76V56.1932Z" fill="black" stroke="black" stroke-width="3" stroke-miterlimit="10"/>
<path d="M673.395 80.4794H593.951V121.637H673.395V80.4794Z" fill="black" stroke="black" stroke-width="3" stroke-miterlimit="10"/>
<path d="M604.35 15.6279H532.404V52.8906H604.35V15.6279Z" fill="black" stroke="black" stroke-width="3" stroke-miterlimit="10"/>
<path d="M673.858 8.91376H672.951V88.5488H673.858V8.91376Z" fill="black" stroke="black" stroke-width="3" stroke-miterlimit="10"/>
<path d="M222.711 140.86H223.598V102.382H141.938V126.622L222.691 126.481L222.711 140.86Z" fill="black" stroke="black" stroke-width="3" stroke-miterlimit="10"/>
<path d="M885.485 24.2307C885.485 24.2307 890.402 9.02654 860.112 17.8905C829.822 26.7544 769.201 26.1157 766.743 28.6549C764.284 31.1941 766.743 36.1791 777.384 38.1108C788.024 40.0425 853.22 28.0162 844.211 53.9692C835.203 79.9223 775.691 45.744 770.834 55.2466C765.977 64.7493 770.028 74.2363 777.384 77.3986C784.739 80.561 783.954 66.6342 787.218 66.0111C790.483 65.388 886.916 85.7796 885.787 81.8228C884.255 76.4951 840.866 36.9113 900.237 48.5481C900.237 48.5481 889.495 38.1108 860.112 38.1108C830.729 38.1108 777.908 34.9173 780.447 33.5931C782.986 32.269 880.023 38.9364 885.485 24.2307Z" fill="#E84648"/>
<path d="M1157.65 41.7211C1151.18 18.6968 1143.55 -6.24372 1138.04 -20.0615H1125.19C1113.38 8.55544 1092.58 84.3583 1088.55 83.3769C1083.37 82.1773 1091.19 36.004 1076.34 11.7178C1061.48 -12.5684 1024.26 5.9539 1013.86 17.4817C1003.46 29.0094 967.811 -31.0284 967.811 83.3769C967.811 197.782 1003.46 81.0713 1009.41 81.0713C1015.35 81.0713 1009.41 128.444 1022.77 126.45C1036.13 124.456 1042.07 30.2245 1044.94 23.2923C1047.8 16.36 1067.23 9.42781 1068.72 46.6594C1070.21 83.8909 1099.89 130.781 1107.33 126.107C1114.77 121.434 1118.78 -22.772 1132.18 -19.3137C1145.58 -15.8554 1132.66 126.139 1132.66 126.139C1139.9 138.04 1149.73 130.812 1157.65 120.203V41.7211Z" fill="#7C9ECF"/>
<path d="M774.321 201.552C788.891 170.116 806.344 126.31 810.596 127.027C817.207 128.148 807.211 170.91 826.175 193.374C829.036 196.854 833.052 199.678 837.803 201.552H875.429C888.488 198.218 900.177 192.548 905.779 188.03C919.06 177.328 1012.59 230.434 1012.59 124.487C1012.59 18.5409 967.166 126.622 959.568 126.622C951.97 126.622 911.442 85.293 894.393 87.1467C877.343 89.0005 883.813 177.219 870.894 185.725C864.627 189.791 837.541 195.601 835.647 161.111C833.752 126.622 795.844 83.2211 786.352 87.5206C779.339 90.6362 774.744 164.663 765.917 201.63L774.321 201.552Z" fill="#7C9ECF"/>
<path d="M747.598 201.552C744.595 163.806 754.128 87.4427 754.128 87.4427C745.301 76.8652 733.37 82.5512 723.515 91.7267V168.869C727.868 180.023 732.544 191.473 736.998 201.583L747.598 201.552Z" fill="#7C9ECF"/>
<path d="M327.83 29.2587C327.83 29.2587 311.365 184.774 328.455 188.56C345.545 192.345 350.623 34.3371 360.135 29.2587C369.648 24.1802 407.636 75.51 409.551 116.309C411.465 157.108 436.153 149.506 439.942 141.904C443.73 134.302 451.348 31.0969 468.438 28.916C485.528 26.735 477.95 78.6256 485.548 78.6256C493.146 78.6256 538.752 -49.2236 538.752 76.0863C538.752 201.396 493.146 135.579 479.925 148.228C466.705 160.878 419.123 181.145 400.119 154.569C381.115 127.992 391.131 77.4105 384.5 76.0863C377.87 74.7622 339.136 201.163 329.2 201.163C319.265 201.163 279.261 70.7898 278.818 64.839C278.374 58.8882 309.672 3.60163 327.83 29.2587Z" fill="#7C9ECF"/>
</g>
<defs>
<clipPath id="clip0_76_2">
<rect width="1139" height="171" rx="20" fill="white"/>
</clipPath>
</defs>
</svg>
