<svg width="1159" height="176" viewBox="0 0 1159 176" fill="none" xmlns="http://www.w3.org/2000/svg">
<path d="M245.704 22.3683V68.1173H256.961V22.3683H245.704Z" fill="black" stroke="black" stroke-miterlimit="10"/>
<path d="M274.201 22.3876V68.1366H285.458V22.3876H274.201Z" fill="black" stroke="black" stroke-miterlimit="10"/>
<path d="M343.994 27.817V42.645H348.537V27.817H343.994Z" fill="black" stroke="black" stroke-miterlimit="10"/>
<path d="M444.833 100.867V160.919H450.461V100.867H444.833Z" fill="black" stroke="black" stroke-miterlimit="10"/>
<path d="M411.516 79.7734V139.825H417.144V79.7734H411.516Z" fill="black" stroke="black" stroke-miterlimit="10"/>
<path d="M499.458 29.0235V28.6343H363.269V78.9757H387.225L387.086 29.1986L499.458 29.0235Z" fill="black" stroke="black" stroke-miterlimit="10"/>
<path d="M543.144 89.4252V135.174H554.401V89.4252H543.144Z" fill="black" stroke="black" stroke-miterlimit="10"/>
<path d="M584.695 46.9064V92.6554H595.952V46.9064H584.695Z" fill="black" stroke="black" stroke-miterlimit="10"/>
<path d="M755.346 134.143V171.855H760.975V134.143H755.346Z" fill="black" stroke="black" stroke-miterlimit="10"/>
<path d="M722.01 120.891V158.603H727.639V120.891H722.01Z" fill="black" stroke="black" stroke-miterlimit="10"/>
<path d="M809.794 62.5907V62.2015H673.605V112.543H697.561L697.422 62.7659L809.794 62.5907Z" fill="black" stroke="black" stroke-miterlimit="10"/>
<path d="M888.455 2.87005V32.9932H899.712V2.87005H888.455Z" fill="black" stroke="black" stroke-miterlimit="10"/>
<path d="M916.953 2.85046V32.9736H928.21V2.85046H916.953Z" fill="black" stroke="black" stroke-miterlimit="10"/>
<path d="M1087.58 65.7237V125.775H1093.21V65.7237H1087.58Z" fill="black" stroke="black" stroke-miterlimit="10"/>
<path d="M1054.25 44.6296V104.681H1059.88V44.6296H1054.25Z" fill="black" stroke="black" stroke-miterlimit="10"/>
<path d="M28.2076 58.154V72.9821H32.7499V58.154H28.2076Z" fill="black" stroke="black" stroke-miterlimit="10"/>
<path d="M98.8696 128.539V155.938H104.498V128.539H98.8696Z" fill="black" stroke="black" stroke-miterlimit="10"/>
<path d="M183.691 59.3605V58.9713H47.5023V109.313H71.4579L71.3196 59.5356L183.691 59.3605Z" fill="black" stroke="black" stroke-miterlimit="10"/>
<path d="M114.156 73.0018C123.892 84.0352 143.562 128.383 145.418 129.901C147.275 131.419 168.9 134.591 157.9 108.924C146.9 83.2569 108.883 73.8969 121.344 64.4202C133.806 54.9434 161.632 99.5638 167.241 97.9293C172.85 96.2947 188.195 88.1996 203.263 51.6353C218.332 15.0711 181.263 62.6688 179.564 69.6158C177.866 76.5628 167.399 93.9401 162.323 82.4785C157.248 71.0169 191.947 44.3964 188.629 38.5975C185.311 32.7986 114.116 45.9727 110.482 50.2732C106.849 54.5737 110.482 32.7597 121.344 30.5997C132.206 28.4397 144.214 38.2473 149.23 36.4376C154.246 34.6278 182.25 12.2495 161.237 -2.11152C140.224 -16.4726 155.115 8.61061 151.896 12.4052C148.677 16.1998 113.326 18.0679 92.9452 38.6559C72.5643 59.244 125.018 67.845 109.929 68.9737C94.8411 70.1023 90.8913 51.577 85.0061 57.8234C79.1209 64.0699 61.4653 68.818 125.768 120.23C125.768 120.23 132.739 116.902 124.05 106.861C115.36 96.8201 99.4821 93.0839 100.746 88.8612C102.01 84.6385 107.816 65.8212 114.156 73.0018Z" fill="#90BE80"/>
<path d="M770.632 54.632C760.876 65.6655 741.225 110.013 739.349 111.551C737.473 113.088 715.887 116.221 726.868 90.5735C737.848 64.9261 775.885 55.5466 763.364 46.0504C750.843 36.5542 723.155 81.1941 717.546 79.5595C711.938 77.9249 696.593 69.8298 681.524 33.2656C666.456 -3.2986 703.525 44.2991 705.223 51.2461C706.921 58.1931 717.369 75.5703 722.444 64.1282C727.52 52.6861 692.86 26.0267 696.04 20.2278C699.219 14.4289 770.572 27.6029 774.206 31.9035C777.84 36.204 774.206 14.39 763.344 12.23C752.482 10.07 740.534 19.8581 735.538 18.1457C730.541 16.4332 702.557 -6.12021 723.57 -20.4812C744.583 -34.8423 729.613 -9.77858 732.872 -5.8867C736.13 -1.99482 771.441 -0.224015 791.842 20.364C812.243 40.9521 759.77 49.5726 774.858 50.5456C789.946 51.5185 793.896 33.1489 799.781 39.3953C805.666 45.6418 823.302 50.5456 759 101.86C759 101.86 752.048 98.5324 760.718 88.4914C769.388 78.4503 785.305 74.7141 784.041 70.4914C782.777 66.2688 777.011 47.4515 770.632 54.632Z" fill="#90BE80"/>
<path d="M945.431 143.153C932.732 135.583 885.019 124.141 883.162 122.584C881.306 121.028 874.433 100.615 901.963 106.881C929.493 113.147 945.47 148.407 952.777 134.61C960.084 120.814 910.712 101.646 911.304 95.925C911.897 90.2039 917.565 73.8969 951.454 52.9781C985.343 32.0592 944.226 76.3294 937.63 79.0537C931.034 81.778 915.412 95.0298 927.755 97.9877C940.098 100.945 960.756 62.7467 967.095 64.9067C973.435 67.0667 972.566 138.502 968.912 142.744C965.259 146.986 986.39 139.65 986.686 128.811C986.983 117.972 975.094 107.931 975.963 102.775C976.832 97.6179 994.527 66.5802 1012.5 84.5023C1030.47 102.424 1002.84 92.2861 999.602 96.0612C996.363 99.8363 1000.59 134.474 983.507 157.806C966.424 181.138 948.709 131.711 950.269 146.539C951.829 161.367 970.946 162.106 965.713 168.82C960.479 175.533 958.702 193.572 896.216 140.059C896.216 140.059 898.349 132.742 909.883 139.417C921.416 146.091 927.894 160.822 931.903 158.876C935.912 156.93 953.706 148.076 945.431 143.153Z" fill="#90BE80"/>
<path d="M613.094 219.453C600.395 211.883 552.682 200.441 550.825 198.885C548.969 197.328 542.096 176.915 569.646 183.161C597.196 189.408 613.094 224.707 620.421 210.911C627.748 197.114 578.375 177.83 579.047 172.225C579.718 166.621 585.248 150.178 619.117 129.278C652.987 108.379 611.889 152.63 605.293 155.334C598.697 158.039 583.056 171.33 595.418 174.288C607.781 177.246 628.419 139.047 634.759 141.207C641.098 143.367 640.229 214.822 636.575 219.045C632.922 223.267 654.073 215.95 654.35 205.112C654.626 194.273 642.717 184.251 643.626 179.094C644.534 173.938 662.21 142.9 680.181 160.822C698.153 178.744 670.504 168.606 667.265 172.381C664.027 176.156 668.253 210.774 651.17 234.126C634.087 257.477 616.372 208.031 617.952 222.859C619.532 237.687 638.61 238.426 633.376 245.12C628.143 251.814 626.424 269.873 563.978 216.301C563.978 216.301 566.091 208.965 577.625 215.659C589.158 222.353 595.636 237.064 599.645 235.118C603.654 233.172 621.467 224.376 613.094 219.453Z" fill="#90BE80"/>
<path d="M498.708 64.4785C488.971 75.512 469.301 119.86 467.445 121.397C465.589 122.935 443.983 126.068 454.964 100.42C465.944 74.7725 503.981 65.3931 491.44 55.8969C478.899 46.4007 451.152 91.0406 445.642 89.4644C440.132 87.8882 424.669 79.7347 409.6 43.1704C394.532 6.60623 431.601 54.2039 433.299 61.1509C434.997 68.0979 445.445 85.4752 450.52 74.0331C455.596 62.5909 420.897 35.9316 424.214 30.1327C427.532 24.3337 498.747 37.5078 502.381 41.8083C506.015 46.1088 502.381 24.2948 491.519 22.1348C480.657 19.9748 468.63 29.7824 463.633 28.07C458.637 26.3575 430.613 3.72624 451.646 -10.6348C472.678 -24.9958 457.768 0.0873352 461.027 3.843C464.285 7.59866 499.596 9.50569 519.997 30.0937C540.398 50.6818 487.925 59.3801 502.993 60.4115C518.062 61.4428 522.031 43.0148 527.936 49.2612C533.841 55.5077 551.398 60.2753 487.095 111.706C487.095 111.706 480.144 108.379 488.813 98.3379C497.483 88.2968 513.381 84.5606 512.137 80.3379C510.893 76.1152 505.067 57.298 498.708 64.4785Z" fill="#90BE80"/>
<path d="M132.206 166.173V226.225H137.834V166.173H132.206Z" fill="black" stroke="black" stroke-miterlimit="10"/>
<path d="M4.82477 228.327C-7.89359 220.776 -55.5874 209.315 -57.4438 207.758C-59.3002 206.201 -66.1137 185.788 -38.623 192.054C-11.1324 198.32 4.82478 233.581 12.1714 219.784C19.518 205.987 -29.8347 186.761 -29.1633 181.099C-28.4918 175.436 -22.9818 159.051 10.9075 138.113C44.7968 117.175 3.65958 161.464 -3.07483 164.227C-9.80924 166.991 -25.2925 180.204 -12.9493 183.161C-0.606203 186.119 20.1105 147.843 26.5487 150.08C32.9869 152.318 32.0192 223.676 28.3458 227.918C24.6725 232.16 45.8435 224.824 46.1199 213.985C46.3964 203.146 34.4483 193.125 35.337 187.968C36.2257 182.811 53.9011 151.734 71.9714 169.696C90.0417 187.657 62.3141 177.479 59.0753 181.254C55.8365 185.03 60.043 219.667 42.9799 242.999C25.9167 266.331 8.16236 216.904 9.74228 231.732C11.3222 246.56 30.4195 247.3 25.186 254.013C19.9525 260.727 18.2343 278.746 -44.2318 225.174C-44.2318 225.174 -42.0989 217.858 -30.5654 224.532C-19.032 231.207 -12.5543 245.937 -8.5453 243.991C-4.53625 242.046 13.1589 233.25 4.82477 228.327Z" fill="#90BE80"/>
<path d="M302.679 194.818C289.961 187.248 242.267 175.806 240.411 174.249C238.554 172.692 231.682 152.279 259.212 158.545C286.742 164.811 302.66 200.072 310.006 186.275C317.353 172.478 267.961 153.311 268.632 147.59C269.304 141.869 274.814 125.542 308.703 104.643C342.592 83.7434 301.475 127.994 294.879 130.718C288.282 133.443 272.661 146.695 285.004 149.652C297.347 152.61 318.005 114.411 324.344 116.571C330.683 118.731 329.815 190.167 326.141 194.409C322.468 198.651 343.639 191.315 343.915 180.476C344.192 169.637 332.323 159.596 333.192 154.439C334.061 149.283 351.756 118.245 369.727 136.167C387.699 154.089 360.07 143.951 356.831 147.726C353.592 151.501 357.799 186.139 340.736 209.471C323.673 232.802 305.938 183.376 307.498 198.204C309.058 213.032 328.175 213.771 322.942 220.485C317.708 227.198 315.99 245.217 253.524 191.646C253.524 191.646 255.657 184.329 267.19 191.004C278.724 197.678 285.202 212.409 289.211 210.463C293.22 208.517 310.935 199.741 302.679 194.818Z" fill="#90BE80"/>
<path d="M1141.46 45.8559C1131.72 56.8894 1112.07 101.218 1110.2 102.755C1108.32 104.292 1086.73 107.445 1097.71 81.7974C1108.7 56.1499 1146.73 46.7705 1134.19 37.2743C1121.65 27.7781 1094 72.3012 1088.39 70.7639C1082.78 69.2266 1067.42 61.0342 1052.37 24.4895C1037.32 -12.0553 1074.37 35.5035 1076.07 42.4505C1077.77 49.3975 1088.22 66.7747 1093.29 55.3326C1098.37 43.8905 1063.67 17.2311 1066.99 11.4517C1070.3 5.67222 1141.52 18.8073 1145.15 23.1273C1148.79 27.4473 1145.15 5.61385 1134.29 3.45385C1123.43 1.29386 1111.4 11.0819 1106.4 9.29167C1101.41 7.50141 1073.38 -14.9158 1094.4 -29.2379C1115.41 -43.5601 1100.52 -18.4963 1103.72 -14.7212C1106.92 -10.9461 1142.37 -9.09746 1162.69 11.4906C1183.01 32.0786 1130.62 40.8159 1145.71 41.8083C1160.79 42.8008 1164.74 24.4116 1170.63 30.6581C1176.51 36.9046 1194.15 41.6721 1129.85 93.0644C1129.85 93.0644 1122.89 89.7563 1131.56 79.6958C1140.23 69.6353 1156.19 65.9185 1154.89 61.6958C1153.58 57.4731 1147.82 38.6559 1141.46 45.8559Z" fill="#90BE80"/>
</svg>
